<svg width="286" height="41" viewBox="0 0 286 41" fill="none" xmlns="http://www.w3.org/2000/svg">
<g clip-path="url(#clip0_123_22250)">
<path fill-rule="evenodd" clip-rule="evenodd" d="M18.657 0.403437C19.4514 0.403437 20.5137 0.668233 21.5759 1.73049C22.6367 2.52643 22.6367 4.1183 22.3704 5.44537C22.1056 6.50611 21.8392 7.30205 20.5137 8.09798C19.1866 8.89392 17.8596 8.89391 17.8596 8.89391V13.9343L20.2474 16.0573L17.8596 17.914V25.0789C17.8596 25.0789 20.2474 23.4871 21.8392 20.3018L22.1056 19.7707C22.1056 20.8314 22.1056 22.4248 21.0433 24.8126C20.5122 26.4045 19.1866 27.9979 17.3284 29.0586C14.4095 30.649 12.2865 30.649 9.89868 30.3842C6.97975 29.5882 4.32562 27.9979 2.73375 25.3438C1.40668 23.4871 0.875549 21.0977 0.875549 18.7099C1.14188 13.9328 4.59042 9.95313 8.57162 8.36126C9.10275 8.09646 9.36755 8.09646 10.1635 8.09646C9.89868 8.09646 9.36755 8.36126 8.83642 8.89239C7.50936 9.6868 6.44862 11.2802 5.91749 12.6073L13.8784 9.1572V20.3018L7.50936 23.4871C8.30529 24.5478 10.4283 26.1412 12.285 26.1412C15.735 26.6708 17.5917 25.0805 17.5917 25.0805V17.9155L14.9376 16.0588L17.5917 13.9359V8.89543C16.2482 8.60832 14.9199 8.25379 13.612 7.83317C12.0202 7.56837 7.24303 6.24131 6.7119 6.24131C5.91597 5.9765 4.8537 5.9765 4.32409 6.50763C3.79449 7.03876 3.52968 7.8347 3.79296 8.63063C3.79296 9.16176 4.05929 9.42657 4.32409 9.69137C4.32409 9.69137 4.05929 9.69138 3.52968 9.42657C2.73375 8.89544 1.93629 7.83469 1.93629 6.50763C1.93629 4.91576 2.46742 3.32237 4.06081 2.26163C5.12155 1.4657 6.44862 0.93456 8.04049 1.20089C10.4283 1.46569 13.6136 2.79276 16.5325 3.58869C17.5932 3.8535 18.3892 3.8535 19.1866 3.32237C19.4514 3.05757 20.2474 2.52795 19.7178 1.73049C18.9218 0.669754 17.8596 0.669764 16.7988 0.403437C17.5948 0.138633 17.8611 0.138633 18.657 0.403437ZM9.10427 22.4279V11.548L5.92053 13.1399C5.92053 13.1399 5.1246 14.9966 5.1246 17.6507C5.3894 19.7737 6.45166 22.1615 7.2476 23.2238L9.10427 22.4279ZM49.4367 11.0184C49.4367 11.0184 46.7826 12.6103 45.1907 13.6726L41.4758 15.5308V25.8779L39.884 26.9417L40.1488 27.2065L41.4758 26.1458L45.9867 30.1254L53.9475 24.0228L53.6812 23.7564L49.4352 27.2065L45.7203 23.7564V22.6957L52.8853 17.389L49.4367 11.0184ZM49.4367 19.5089L45.7219 22.163V13.4062L49.4367 19.5089ZM29.0057 34.1036C30.0664 34.1036 31.6583 34.3684 34.0461 33.3077C36.4339 31.9821 37.4962 29.5928 37.4962 26.9402L37.761 23.2238V14.9981L39.088 13.9374V13.6726L37.4962 14.7333L34.0461 11.0184L29.5353 14.7333V1.73203L23.9622 5.97802C24.227 6.24282 25.0245 6.24283 25.0245 7.5699V25.8779L22.6367 27.4698L22.9015 27.7346L23.9638 26.9417L27.1475 29.8606L32.1894 25.8779L31.9231 25.6131L30.8624 26.6739L29.5353 25.3483V15.2644L30.8624 13.9374L33.2502 16.5915V25.3483C33.2502 27.7346 33.2502 30.6535 31.9231 31.9821C30.5976 33.571 30.3312 33.5709 29.0057 34.1036ZM63.7666 33.0429C61.6436 32.7781 60.8477 31.7173 60.8477 30.6535C60.8477 30.1239 61.6436 28.7953 62.7059 28.7953C64.0329 28.5305 65.0937 29.0632 66.1559 30.3887L70.9315 25.0835H70.6667L69.3397 26.4091C68.2789 25.0835 66.4223 24.0212 64.5641 23.7549V8.0995L76.5046 30.1239C76.5046 30.1239 76.7694 30.3887 77.3005 30.3887C77.5653 30.3887 77.5653 30.1239 77.5653 30.1239V8.0995C78.6276 7.8347 79.9532 7.30357 80.7491 6.77244C83.1369 4.38463 82.0761 1.73202 81.8113 1.4657C81.8113 2.52796 80.7491 3.5887 79.4235 3.8535C77.5653 3.8535 76.2398 2.26163 76.2398 2.26163L71.729 7.56838L71.9953 7.83317L73.3224 6.24131C74.9143 7.83318 75.9765 7.83318 77.3021 8.0995V20.836L68.2804 4.64944C67.4845 3.32237 66.4238 1.99682 64.3008 1.99682C62.1778 1.99682 60.5859 3.8535 60.3211 5.71018C60.0563 7.56837 60.3211 8.09798 60.3211 8.09798C60.3211 8.09798 60.5859 5.97498 61.913 5.97498C63.24 5.97498 63.7712 7.03572 64.3008 7.83165V12.6088C62.9737 12.6088 59.79 12.6088 59.79 16.0588C59.79 17.1196 60.5859 18.4467 61.117 18.9778C61.913 19.5089 62.7089 19.5089 62.7089 19.5089C62.7089 19.5089 61.6466 18.9778 61.913 17.917C62.1793 16.8563 64.3008 16.8563 64.3008 17.1211V23.7549C63.24 23.7549 60.3211 23.7549 58.7277 26.4091C57.9318 28.0024 57.9318 29.8606 58.9925 31.1862C59.7854 32.2454 61.1125 33.5709 63.7666 33.0429ZM89.2396 11.0184C89.2396 11.0184 86.8518 12.6103 84.9936 13.6726L81.2787 15.5308V25.8779L79.6868 26.9417L79.9516 27.2065L81.5435 26.1458L85.7895 30.1254L93.7489 24.0228L93.4841 23.7564L89.238 27.2065L85.788 23.7564V22.6957L92.6866 17.389L89.2396 11.0184ZM89.2396 19.5089L85.7895 22.163V13.4062L89.2396 19.5089ZM100.119 30.1239L96.1382 26.9402L94.5463 28.2657L94.28 28.0009L96.1382 26.6723V17.917C96.1382 14.2022 92.6881 15.2644 92.9544 11.2832C92.9544 9.69137 94.5463 8.3643 95.6071 7.83317C96.403 7.56837 97.4652 7.56838 97.4652 7.56838C97.4652 7.56838 95.8734 8.36431 96.1382 9.95618C96.6693 12.0792 100.384 12.0792 100.649 14.9966V25.0805L103.303 27.2035L104.099 26.6708V15.7925L102.507 14.4655L106.222 11.0154L109.672 14.1991L108.345 15.5262V25.0789L111.795 27.73L112.326 27.4652V15.791L110.734 14.4639L114.449 11.0139L118.163 13.9328L119.49 12.6057L119.754 12.8706L116.571 15.7895V25.0774L108.345 30.1178L104.099 26.9341L100.119 30.1239ZM267.29 11.0184C267.29 11.0184 264.636 12.6103 263.046 13.6726L259.331 15.5308V25.8779L257.737 26.9417L258.005 27.2065L259.331 26.1458L263.84 30.1254L271.802 24.0228L271.535 23.7564L267.29 27.2065L263.575 23.7564V22.6957L270.742 17.389L267.29 11.0184ZM267.29 19.5089L263.575 22.163V13.4062L267.29 19.5089ZM230.673 15.5292H230.937L232.263 14.467L234.386 16.8548V25.3468L233.324 26.1442L236.775 30.1239L240.222 26.6723L238.897 25.082V14.9981L239.694 14.2022L242.08 17.1211V25.6116L241.284 26.4075L244.47 29.8591L247.918 26.6723L246.593 25.3468V14.9981L247.389 14.2022L250.041 17.1211V25.3468L249.247 26.1442L252.695 30.1239L257.471 25.6116L257.208 25.3468L256.145 26.4075L254.289 24.5509V14.9981L255.879 13.671V13.4062L254.021 14.7318L250.837 11.2832L246.328 14.7318L243.141 11.2832L238.633 14.7318L235.45 11.2832L230.673 15.5292Z" fill="#0C1E7D"/>
<path fill-rule="evenodd" clip-rule="evenodd" d="M221.12 15.2644L222.445 14.2022L224.304 16.59V26.1442L222.976 27.4698L223.241 27.7331L224.567 26.4075L227.754 30.1239L232.263 26.1442L231.998 25.8764L230.673 26.9402L228.814 24.8157V15.2644L230.405 13.9374V13.671L228.814 14.9981L225.629 11.2832L221.12 15.2644ZM222.445 7.03723L225.629 4.11829L228.548 7.03723L225.099 10.2225L222.445 7.03723Z" fill="#0C1E7D"/>
<path fill-rule="evenodd" clip-rule="evenodd" d="M217.669 0.403437C218.465 0.403437 219.792 0.668233 220.852 1.73049C221.648 2.52643 221.916 4.1183 221.648 5.44537C221.383 6.50611 220.852 7.30205 219.79 8.09798C218.465 8.89392 217.139 8.89391 217.139 8.89391V13.9343L219.525 16.0573L217.139 17.914V25.0789C217.139 25.0789 219.525 23.4871 221.119 20.3018L221.383 19.7707C221.383 20.8314 221.384 22.4248 220.323 24.8126C219.79 26.4045 218.2 27.9979 216.608 29.0586C213.689 30.649 211.303 30.649 208.912 30.3842C206.261 29.5882 203.607 27.9979 202.013 25.3438C200.688 23.4871 200.155 21.0978 200.155 18.7099C200.155 13.9328 203.87 9.95313 207.851 8.36126C208.384 8.09646 208.647 8.09646 209.444 8.09646C208.912 8.09646 208.649 8.36126 208.116 8.89239C206.79 9.6868 205.73 11.2802 205.197 12.6073L213.159 9.1572V20.3018L206.789 23.4871C207.585 24.5478 209.708 26.1412 211.566 26.1412C214.75 26.6708 216.606 25.0805 216.606 25.0805V17.9155L214.22 16.0589L216.606 13.9359V8.89543C215.281 8.62911 213.687 8.0995 212.627 7.83317C211.301 7.56837 206.524 6.24131 205.728 6.24131C205.195 5.9765 204.135 5.9765 203.605 6.50763C203.072 7.03876 202.809 7.8347 202.809 8.63063C203.074 9.16177 203.342 9.42657 203.605 9.69137C203.605 9.69137 203.34 9.69138 202.809 9.42657C202.013 8.89544 201.216 7.83469 201.216 6.50763C200.951 4.91576 201.748 3.32237 203.074 2.26164C204.403 1.4657 205.728 0.93456 207.321 1.20089C209.708 1.46569 212.891 2.79276 215.546 3.58869C216.871 3.8535 217.669 3.8535 218.465 3.32237C218.729 3.05757 219.26 2.52795 218.729 1.73049C218.2 0.669754 217.139 0.669764 216.078 0.403437C216.873 0.138633 217.141 0.138633 217.669 0.403437ZM208.384 22.4279V11.548L205.197 13.1399C205.197 13.1399 204.136 14.9966 204.404 17.6507C204.404 19.7737 205.73 22.1615 206.527 23.2238L208.384 22.4279ZM275.783 31.4495C275.25 31.7173 273.128 31.1847 272.596 28.7953C272.066 26.4091 273.66 25.0835 276.047 22.4279L273.128 20.0401V14.9981C273.128 14.9981 275.251 14.2022 276.843 13.1414L280.027 11.0184C280.027 11.0184 281.353 12.6103 282.681 12.3455C284.804 12.0792 284.804 10.4873 284.539 10.2225C285.069 10.7536 285.865 12.6103 282.15 17.1211L285.337 19.5089V25.8764C285.337 25.8764 281.622 27.7346 278.435 30.1239C278.435 30.1239 276.58 27.7346 274.987 28.7953C273.66 29.5913 274.189 30.9199 275.783 31.4495ZM273.128 26.6723C273.128 26.6723 274.722 24.0197 277.641 24.5493C280.292 25.082 281.089 27.7331 281.089 27.7331V21.3671L279.231 19.7752C277.373 21.8967 273.66 24.8157 273.128 26.6723ZM277.373 13.1414V18.1834L278.966 19.7752C278.966 19.7752 282.681 16.8563 284.007 13.9374C284.007 13.9374 282.416 16.3252 280.027 15.5292C278.169 14.9981 277.373 13.1414 277.373 13.1414ZM161.416 15.2644L162.741 14.2022H163.006L161.681 15.5292V25.6116C161.681 25.6116 159.027 26.9402 157.436 28.0009L153.721 30.1239L148.944 26.1442L147.884 27.205H147.619L148.944 25.8764V14.9981C148.944 14.9981 151.067 14.2022 152.924 13.1414C154.517 12.0792 156.372 11.0184 156.372 11.0184L161.416 15.2644ZM153.457 24.2861L157.168 27.7346V16.8563L153.457 13.4062V24.2861ZM170.702 14.2022L173.621 11.2832C173.621 11.2832 173.886 11.5481 174.417 11.8144C174.682 12.0792 175.478 12.3455 176.275 12.0792C176.805 11.8144 176.805 11.548 177.336 11.2832C177.336 13.671 176.275 15.2644 174.947 15.7941C174.154 16.0589 172.561 16.59 170.702 14.467V25.3468L172.825 26.9402L174.154 25.8764H174.419L169.642 30.1239L165.927 26.6723L164.601 28.0009L164.336 27.7331L166.195 25.8749V16.5885L164.866 14.4655L163.54 15.5277H163.276L168.053 11.2817L170.702 14.2022ZM183.174 18.9793L188.479 11.0184C188.479 11.0184 189.275 11.8144 190.604 12.0792C192.194 12.6103 193.788 11.0184 193.788 11.0184C193.523 13.1414 192.462 15.5292 190.073 15.7956C188.214 16.0604 186.358 14.4685 186.358 14.4685L186.093 15.2644L193.524 26.6739L195.115 25.3483L195.379 25.6131L190.074 30.1255L183.174 18.9793Z" fill="#0C1E7D"/>
<path fill-rule="evenodd" clip-rule="evenodd" d="M178.661 8.36418C178.661 6.50751 177.865 5.44677 176.803 5.44677L182.909 1.46558V25.0834L184.499 26.6737L185.56 25.613L185.827 25.8778L181.05 30.1253L177.864 26.9416L176.538 28.2671L176.273 28.0023L178.66 25.8778L178.661 8.36418ZM128.776 7.83306C128.776 6.24118 127.98 5.44525 126.918 5.44525C125.326 5.17892 125.061 7.56826 125.061 7.56826C125.061 7.56826 124.796 5.71006 126.122 4.38451C126.918 3.58858 128.51 2.26151 130.633 2.79264C133.02 3.32378 133.816 5.18045 133.816 6.77232V28.7952C133.816 28.7952 134.612 29.0631 135.143 29.0631C135.939 29.3279 136.47 29.3279 136.47 29.3279V2.79112H136.735V6.50599L141.512 2.52631L145.227 5.71006L146.821 4.38299H147.085L145.227 5.97486V26.4059C145.227 27.7314 144.962 29.06 143.635 29.8575C140.981 31.7157 137.533 29.5896 134.347 29.3248C132.224 28.7922 128.776 28.5289 127.715 30.6504C127.45 31.183 127.45 32.2438 128.511 33.0397C130.634 34.3652 139.656 30.6504 142.839 32.2438C145.76 33.5693 145.76 35.4275 145.227 37.0209C144.431 39.675 140.981 40.2046 140.981 40.2046C140.981 40.2046 142.838 39.1439 142.308 37.5535C142.043 36.7576 141.512 36.4898 139.654 36.7576C135.674 37.2872 131.164 39.1439 127.98 37.8184C126.388 37.0224 125.061 35.1642 125.326 33.0412C125.326 30.1223 128.776 29.0616 128.776 29.0616V18.4465C128.511 18.1817 126.918 18.1817 126.388 18.9777C125.857 20.3047 127.184 20.8343 127.184 20.8343C127.184 20.8343 126.122 20.8343 125.061 19.7736C124.796 19.2425 123.734 17.6506 125.061 15.7939C125.857 14.4669 127.184 14.2021 128.776 14.2021V7.83306ZM136.737 29.5912C136.737 29.5912 138.329 29.859 139.125 29.0616C140.452 28.0008 140.185 26.9385 140.185 26.9385V18.7113C140.185 18.7113 139.654 17.6491 138.593 17.6491C137.533 17.6491 136.735 18.7113 136.735 18.7113L136.737 29.5912ZM140.187 7.83306L138.064 5.97638L136.737 6.77232V14.4684C136.737 14.4684 137.533 15.2643 138.595 15.2643C139.657 15.2643 140.187 14.4684 140.187 14.4684V7.83306ZM140.187 14.998C140.187 14.998 139.656 15.5291 138.595 15.5291C137.534 15.5291 136.737 14.998 136.737 14.998V18.1833C136.737 18.1833 137.533 17.3873 138.595 17.3873C139.657 17.3873 140.187 18.1833 140.187 18.1833V14.998Z" fill="#0C1E7D"/>
</g>
<defs>
<clipPath id="clip0_123_22250">
<rect width="284.461" height="40" fill="white" transform="translate(0.875549 0.204834)"/>
</clipPath>
</defs>
</svg>
