<svg width="450" height="154" viewBox="0 0 450 154" xmlns="http://www.w3.org/2000/svg" xmlns:xlink="http://www.w3.org/1999/xlink"><title>logo</title><path d="M283.054 117.239c-2.821-6.487-4.323-13.902-4.323-22.244 0-40.96 36.472-59.006 73.557-59.006h2.458c11.27 0 56.345 2.839 61.058 48.056l-44.872 4.867c-.409-12.37-3.073-25.346-18.235-25.346-19.464 0-20.899 16.018-20.899 31.226v.406c0 15.207 1.64 31.226 20.9 31.226 10.04 0 19.054-5.678 19.054-17.844h44.666l-.205 3.853C408.838 148.323 375.85 154 352.288 154c-28.09 0-55.987-10.351-67.68-33.291v29.74H202.87v-33.21h15.442V82.602c0-10.39-7.618-15.077-17.295-15.077-12.354 0-21.619 8.965-21.619 21.19v28.727h15.854v33.21H111.66v-33.21h15.031V67.525h-15.03v-33.21h65.884v23.023c1.236-1.019 2.265-2.241 3.089-3.26 11.942-13.65 25.736-18.54 43.854-18.54 25.531 0 46.12 10.187 46.12 38.1v43.804-.203h12.446zM0 35.34V0h105.784v35.34H85.809v82.596h19.975v32.716H0v-32.716h19.77V35.341H0zm431.53 116.148c-10.2 0-18.47-8.244-18.47-18.413 0-10.17 8.27-18.413 18.47-18.413S450 122.906 450 133.076c0 10.169-8.27 18.413-18.47 18.413z" fill="#0C1E7D" fill-rule="nonzero"></path></svg>