<svg xmlns="http://www.w3.org/2000/svg" width="159" height="41" viewBox="0 0 159 41" fill="none">
  <g clip-path="url(#clip0_123_22257)">
    <path d="M89.4591 0.449911C89.4591 0.765009 89.0739 0.905053 88.2335 0.905053C87.8658 0.905053 87.3406 0.99258 87.0779 1.09761C86.7978 1.18514 86.0624 1.34269 85.4321 1.43022C84.8018 1.51774 83.9789 1.67529 83.5937 1.76282C82.3681 2.06041 81.0025 2.323 79.8469 2.46304C78.6738 2.62059 78.3937 2.83065 78.4637 3.53087C78.5162 3.91599 78.6038 3.98602 79.4442 4.05604C80.5998 4.16107 81.3526 4.82628 81.8429 6.19171C82.158 7.08448 82.1755 7.73219 82.193 22.9444V38.7869L82.7183 38.997C83.0159 39.1195 83.5237 39.2245 83.8564 39.242C84.189 39.242 84.7493 39.3296 85.082 39.4346C86.6577 39.9423 93.6086 40.1698 95.9373 39.8022C98.3885 39.4171 100.419 38.5593 102.328 37.0889C103.571 36.1436 105.725 33.6228 105.742 33.0976C105.742 32.9401 105.865 32.7125 106.005 32.59C106.145 32.4674 106.267 32.2398 106.267 32.0823C106.267 31.9247 106.355 31.6972 106.442 31.6096C106.915 31.137 107.738 26.7081 107.721 24.8C107.703 23.3121 107.283 20.5637 107.003 20.0385C106.88 19.8285 106.793 19.5484 106.793 19.4083C106.793 18.9007 106.005 17.3777 105.182 16.2924C104.902 15.9423 104.692 15.5746 104.692 15.5046C104.674 15.172 101.89 12.9838 101.487 12.9838C101.347 12.9838 101.137 12.8613 101.015 12.7212C100.892 12.5812 100.63 12.4587 100.419 12.4587C100.227 12.4412 99.8592 12.3361 99.6141 12.1961C99.2989 12.021 98.511 11.951 96.7252 11.9335C94.2915 11.9335 93.6086 12.0385 91.9803 12.7388C91.6652 12.8613 91.1399 13.0188 90.7897 13.0714C90.2295 13.1939 90.1594 13.1589 90.0544 12.7037C89.9318 12.2486 90.2295 4.38864 90.4571 1.46523L90.5621 0.204834H90.0019C89.6517 0.204834 89.4591 0.292361 89.4591 0.449911ZM93.7837 14.8219C94.1164 14.9619 94.5016 15.0845 94.6416 15.0845C95.0268 15.0845 96.3925 16.0998 96.9002 16.7825C97.548 17.6228 98.3885 19.2683 98.3885 19.6709C98.3885 19.8635 98.476 20.1786 98.5986 20.3886C99.3164 21.6665 99.2989 29.6315 98.5986 30.9619C98.476 31.172 98.3885 31.5571 98.3885 31.8372C98.3885 32.0998 98.2659 32.4849 98.1258 32.66C97.9858 32.8525 97.8632 33.1326 97.8632 33.2902C97.8632 33.4477 97.6706 33.9379 97.4255 34.358C97.1979 34.7781 96.9177 35.2858 96.8302 35.4784C96.5501 36.091 95.5346 37.0889 94.5891 37.649C93.7312 38.1742 93.6086 38.2092 92.1379 38.1567L90.5971 38.1042L90.4921 35.7409C90.0194 25.8503 89.8618 15.6797 90.1769 15.3646C90.282 15.242 92.5406 14.6118 92.9258 14.5768C93.0483 14.5593 93.4335 14.6819 93.7837 14.8219ZM0.865723 2.04291C0.865723 2.76063 1.21589 3.00571 2.26641 3.00571C3.56204 3.00571 5.1028 4.09105 5.64556 5.42146C5.78563 5.77157 6.03075 6.8219 6.20584 7.74969C6.45096 9.22015 6.50348 10.8657 6.48597 20.4412C6.48597 30.4893 6.45096 31.6096 6.1358 33.2902C5.96072 34.3055 5.69809 35.3208 5.55802 35.5659C4.75263 37.0363 4.05228 37.5265 2.47651 37.7366C1.26842 37.8941 0.865723 38.1567 0.865723 38.7519C0.865723 39.102 0.970774 39.2595 1.26842 39.3296C1.47852 39.3821 6.03075 39.3996 11.3709 39.3821L21.0881 39.3296L21.1406 38.8394C21.2282 38.0867 20.9305 37.8941 19.5474 37.7541C18.8645 37.684 18.0942 37.509 17.849 37.3514C17.1837 36.9313 16.4484 36.2311 16.4484 35.986C16.4484 35.881 16.3433 35.6884 16.2032 35.5834C16.0632 35.4609 15.9231 35.0932 15.8706 34.7256C15.818 34.3755 15.6955 33.6753 15.6079 33.1851C15.5029 32.695 15.3628 29.9291 15.2928 27.0582C15.1877 22.2967 15.2052 21.8066 15.4679 21.579C15.678 21.404 16.1332 21.3689 17.3763 21.439C20.0901 21.5965 21.0531 21.8591 21.9285 22.6118C22.6814 23.277 23.802 25.2552 23.802 25.9204C23.802 26.7781 25.2727 27.2158 25.4653 26.428C25.5178 26.2005 25.5353 23.3471 25.5178 20.0735L25.4653 14.1217L24.8525 14.0692C24.1696 13.9991 23.802 14.3493 23.802 15.0845C23.802 15.3296 23.6794 15.6972 23.5393 15.8897C23.3993 16.0648 23.2767 16.3274 23.2767 16.4674C23.2767 16.7475 22.2787 18.0429 21.7885 18.4105C20.7029 19.2158 20.3703 19.2858 17.779 19.2858C16.2558 19.2858 15.2228 19.2158 15.1877 19.1107C15.1002 18.8482 15.3628 4.5637 15.4679 4.30111C15.6079 3.9335 24.1171 3.951 24.6073 4.31862C24.7824 4.45866 25.0626 4.5812 25.2201 4.5812C25.5353 4.5812 27.0585 5.544 27.6013 6.08667C28.0215 6.5068 28.967 7.73219 29.107 8.0823C29.1771 8.22234 29.4222 8.69499 29.6673 9.11512C29.9124 9.53525 30.105 9.99039 30.105 10.1129C30.105 10.2355 30.2276 10.5506 30.3677 10.8307C30.5077 11.0932 30.6653 11.5309 30.7178 11.7935C30.8404 12.4061 31.4532 12.5812 32.1886 12.2136L32.7313 11.916V1.43022H0.865723L0.865723 2.04291ZM41.1004 11.5134C41.0479 11.5659 40.4176 11.7059 39.7172 11.846C34.5347 12.7913 31.068 16.1348 29.4397 21.7366C29.037 23.1545 28.932 28.7212 29.3172 29.649C29.4572 30.0167 29.5798 30.5068 29.5798 30.7519C29.5798 31.1545 29.8599 31.9247 30.3852 32.9926C30.5252 33.2727 30.6303 33.5703 30.6303 33.6578C30.6303 34.0079 32.7138 36.5462 33.6243 37.3164C34.4997 38.0517 36.0229 38.8919 37.4586 39.4171C39.6297 40.2048 45.285 40.2048 47.4385 39.3996C51.5355 37.8941 53.7591 35.7234 55.5625 31.4871C55.7201 31.1195 55.8426 30.6468 55.8426 30.4368C55.8601 30.2267 55.9652 29.8591 56.1053 29.614C56.2979 29.2814 56.3504 28.3711 56.3504 25.5878C56.3504 22.8044 56.2979 21.8941 56.1053 21.5615C55.9652 21.3164 55.8601 20.9488 55.8426 20.7388C55.8426 20.3536 55.545 19.5659 55.0372 18.5331C54.8972 18.253 54.7921 17.9554 54.7921 17.8679C54.7921 17.4302 52.5685 14.8219 51.5881 14.1042C50.1173 13.0188 47.7887 11.9335 46.9308 11.9335C46.6681 11.9335 46.0553 11.811 45.5826 11.6709C44.7597 11.4258 41.3105 11.2858 41.1004 11.5134ZM43.3765 13.3514C45.1274 13.7716 46.9833 16.5024 47.456 19.3733C47.5261 19.846 47.6661 20.6337 47.7712 21.1239C47.9988 22.2617 47.9988 30.3318 47.7712 31.3646C47.6836 31.8022 47.5436 32.5374 47.456 33.0276C47.1409 34.8132 46.388 36.4062 45.4075 37.3689C44.5321 38.2442 43.6917 38.4543 42.1334 38.2617C41.4156 38.1567 41.1529 37.9991 40.4701 37.3164C40.0149 36.8613 39.5071 36.2136 39.3496 35.8635C38.5092 34.1304 38.159 33.0976 37.9664 31.8897C37.8788 31.3646 37.7388 30.5243 37.6512 30.0517C37.4236 28.9138 37.4411 22.1217 37.6512 20.8613C37.7388 20.3361 37.8613 19.4609 37.9314 18.9357C37.9839 18.4105 38.1415 17.8153 38.264 17.6228C38.4041 17.4302 38.5092 17.0801 38.5092 16.8175C38.5092 16.5549 38.6317 16.2574 38.7718 16.1348C38.9118 16.0123 39.0344 15.7672 39.0344 15.5921C39.0344 15.0845 40.6277 13.614 41.4156 13.3865C42.3435 13.1414 42.4486 13.1239 43.3765 13.3514Z" fill="#0C1E7D"/>
    <path d="M68.0981 11.5659C67.9581 11.6534 67.2752 11.811 66.6099 11.916C65.0867 12.1611 63.7035 12.4237 62.6705 12.6688C62.2328 12.7738 61.4449 12.9138 60.9196 12.9664C60.3944 13.0364 59.7816 13.1764 59.5715 13.299C59.3614 13.4215 58.8011 13.509 58.3459 13.509C57.2603 13.509 56.8401 13.7891 56.9277 14.4718C56.9802 14.962 57.0327 14.997 57.8381 15.0495C58.9236 15.1195 59.8516 15.8022 60.2018 16.765C60.5695 17.8154 60.762 23.5922 60.6395 29.7716C60.5344 34.5506 60.4819 35.3559 60.2018 35.986C59.7466 37.0364 59.0462 37.6141 58.0832 37.7541C57.1203 37.8941 56.8401 38.1567 56.9277 38.8394L56.9802 39.3296H65.1917C72.8255 39.3296 73.4207 39.3121 73.5958 39.0145C73.7359 38.8044 73.7359 38.6294 73.5958 38.4193C73.3682 38.0692 72.8255 37.8941 71.3898 37.7541C69.5689 37.5615 69.0786 36.7213 68.7635 33.2027C68.5183 30.4018 68.4833 22.3493 68.6934 20.7738C68.9035 19.3559 68.9911 19.2333 70.1116 18.6906C70.9345 18.3055 71.3197 18.2355 72.6154 18.2355C73.6308 18.2355 74.3137 18.323 74.6463 18.4981C74.909 18.6381 75.2591 18.7607 75.4167 18.7607C75.5568 18.7607 75.8194 18.8657 75.9595 19.0057C76.1171 19.1283 76.4497 19.2858 76.7124 19.3559C77.1151 19.4434 77.2026 19.3734 77.5353 18.7081C77.7454 18.288 77.9029 17.8329 77.9029 17.6753C77.9029 17.5178 78.0255 17.3077 78.1656 17.1852C78.3056 17.0626 78.4282 16.8001 78.4282 16.59C78.4282 16.3799 78.5508 16.0473 78.6908 15.8548C78.8309 15.6797 78.9535 15.3821 78.9535 15.2246C78.9535 15.067 79.0585 14.7169 79.1986 14.4368C79.8989 12.9839 80.039 12.6513 79.9689 12.3712C79.8114 11.5834 76.4847 11.1283 74.9615 11.6885C72.6854 12.5112 71.2497 13.6141 69.9891 15.5397C69.5864 16.1524 69.1487 16.66 69.0261 16.66C68.8685 16.66 68.7985 16.0123 68.7635 14.0867C68.7284 12.5812 68.6409 11.4959 68.5359 11.4784C68.4483 11.4434 68.2382 11.4959 68.0981 11.5659ZM122.165 11.4959C122.112 11.5484 121.482 11.706 120.781 11.846C119.486 12.0736 118.488 12.3712 117.998 12.6513C117.857 12.7388 117.612 12.8613 117.472 12.9138C117.332 12.9664 117.14 13.0539 117.035 13.0889C115.984 13.509 112.973 16.1874 112.552 17.0976C112.465 17.2902 112.237 17.6753 112.045 17.9729C111.852 18.253 111.659 18.6206 111.589 18.7607C111.537 18.9007 111.379 19.2333 111.239 19.4959C111.099 19.741 110.994 20.0911 110.994 20.2836C110.994 20.4587 110.872 20.7563 110.732 20.9313C110.591 21.1239 110.469 21.5265 110.469 21.8066C110.469 22.1042 110.346 22.7344 110.206 23.2071C109.891 24.2224 109.856 27.5834 110.136 28.6513C110.241 29.0364 110.381 29.7191 110.451 30.1917C110.521 30.6469 110.679 31.1195 110.784 31.2246C110.907 31.3471 110.994 31.6097 110.994 31.8197C110.994 32.0298 111.117 32.2924 111.257 32.4149C111.397 32.5375 111.519 32.765 111.519 32.9401C111.519 33.1152 111.642 33.3427 111.782 33.4653C111.922 33.5878 112.045 33.7629 112.045 33.8504C112.045 34.0955 113.025 35.3208 113.971 36.2661C115.004 37.299 116.457 38.4018 117.122 38.6469C117.262 38.6994 117.63 38.8394 117.91 38.962C119.801 39.7672 121.114 39.9948 123.775 40.0123C125.789 40.0123 127.68 39.7847 128.503 39.4521C128.748 39.3471 129.378 39.102 129.903 38.892C131.217 38.3493 132.565 37.474 133.685 36.4062C134.736 35.4084 134.911 34.8132 134.228 34.4981C133.878 34.3405 133.668 34.4106 132.827 34.9357C132.285 35.2858 131.707 35.5659 131.532 35.5659C131.357 35.5834 131.024 35.6885 130.779 35.8285C130.464 36.0036 129.711 36.0736 128.153 36.0911C125.911 36.0911 125.159 35.951 123.513 35.1808C122.025 34.5156 120.099 32.52 119.486 31.0145C118.645 29.0014 118.348 27.741 118.348 26.1305V24.5375L126.717 24.5025L135.068 24.4499L135.121 23.3471C135.156 22.6994 135.051 21.8416 134.893 21.299C134.753 20.7913 134.631 20.1436 134.631 19.8635C134.631 19.5834 134.508 19.1983 134.368 19.0057C134.228 18.8307 134.105 18.5506 134.105 18.3931C134.105 18.2355 133.913 17.7629 133.668 17.3427C133.423 16.9226 133.177 16.4499 133.107 16.3099C132.897 15.8373 131.934 14.6644 131.322 14.1217C130.989 13.8241 130.604 13.4565 130.446 13.2815C130.306 13.1239 130.043 12.9839 129.903 12.9839C129.746 12.9839 129.536 12.8963 129.413 12.7738C129.151 12.5112 128.153 12.1436 126.752 11.811C125.561 11.5309 122.357 11.3033 122.165 11.4959ZM124.948 14.0867C125.596 14.7169 125.964 15.5046 126.227 16.8001C126.314 17.2027 126.472 17.6928 126.577 17.8679C126.769 18.253 126.822 22.2092 126.629 22.3143C126.542 22.3668 124.686 22.4193 122.462 22.4543L118.435 22.5243L118.383 21.579C118.348 21.0714 118.418 20.4062 118.523 20.0911C118.628 19.7935 118.785 19.1983 118.873 18.7607C118.943 18.323 119.118 17.6928 119.223 17.3602C119.346 17.0276 119.486 16.66 119.521 16.5725C119.556 16.4674 119.731 16.1524 119.924 15.8723C120.116 15.5747 120.344 15.1896 120.431 14.997C120.624 14.5594 121.744 13.6316 122.252 13.474C122.462 13.404 123.023 13.369 123.478 13.404C124.178 13.4565 124.441 13.5615 124.948 14.0867ZM145.924 11.671C145.539 11.811 144.996 11.916 144.698 11.9335C144.418 11.9335 144.015 12.0561 143.84 12.1961C143.648 12.3362 143.315 12.4587 143.105 12.4587C142.877 12.4587 142.65 12.5462 142.597 12.6338C142.527 12.7388 142.212 12.9313 141.879 13.0714C141.214 13.3515 139.06 15.3121 138.815 15.8723C138.728 16.0648 138.588 16.3449 138.5 16.485C137.712 17.8854 137.695 17.9379 137.695 20.2486C137.695 22.1217 137.765 22.6119 138.01 22.962C138.167 23.1896 138.308 23.4871 138.308 23.6272C138.308 24.3099 141.336 27.1633 142.072 27.1633C142.194 27.1633 142.387 27.2858 142.51 27.4259C142.632 27.5659 142.895 27.6885 143.105 27.6885C143.297 27.6885 143.63 27.811 143.805 27.951C143.998 28.0911 144.313 28.2136 144.523 28.2136C144.733 28.2136 145.048 28.3362 145.241 28.4762C145.416 28.6162 145.696 28.7388 145.836 28.7388C146.589 28.7563 149.443 30.4718 150.038 31.2771C150.756 32.2399 151.036 33.6228 150.669 34.358C150.511 34.6731 150.388 35.0232 150.388 35.1633C150.388 35.6009 149.495 36.5987 148.62 37.1414C147.815 37.6316 147.64 37.6666 146.099 37.6666C144.698 37.6666 144.295 37.5966 143.578 37.2464C142.44 36.7038 141.266 35.741 140.654 34.8132C140.374 34.4106 140.111 34.0429 140.058 33.9904C139.918 33.8504 139.533 33.2202 139.428 32.9401C139.235 32.4324 138.868 31.6272 138.553 30.962C138.29 30.4543 138.132 30.3143 137.765 30.3143C137.502 30.3143 137.222 30.4193 137.134 30.5418C136.942 30.7694 137.134 38.1917 137.327 38.5068C137.38 38.5944 137.642 38.7169 137.905 38.7694C138.185 38.8044 138.64 38.927 138.92 39.032C140.846 39.6972 143 39.9773 146.449 39.9773C147.797 39.9948 149.46 39.9073 150.126 39.8197C151.369 39.6272 152.787 39.172 153.085 38.8745C153.19 38.7869 153.365 38.7169 153.487 38.7169C154.52 38.7169 157.742 35.1458 157.742 33.9904C157.742 33.4828 157.935 33.1152 158.197 33.1152C158.39 33.1152 158.442 32.6775 158.442 30.927C158.442 29.1064 158.39 28.7388 158.18 28.7388C158.04 28.7388 157.865 28.5287 157.812 28.2486C157.584 27.3383 157.007 26.4631 156.026 25.5703C155.483 25.0801 154.888 24.6075 154.696 24.52C154.328 24.3624 154.118 24.2574 153.452 23.8723C153.085 23.6447 153.05 23.6272 151.877 23.1896C151.211 22.9445 150.704 22.7344 149.478 22.1917C149.163 22.0517 148.778 21.8941 148.638 21.8416C147.92 21.5615 146.589 20.6513 145.941 20.0211C145.451 19.5309 145.101 18.9882 144.908 18.358C144.628 17.4478 144.628 17.3777 144.961 16.3099C145.346 15.0845 145.591 14.7519 146.607 14.0167C147.237 13.544 147.412 13.509 148.813 13.509C149.863 13.509 150.423 13.579 150.669 13.7716C150.844 13.9117 151.141 14.0342 151.299 14.0342C151.474 14.0342 152.104 14.5243 152.717 15.1195C153.785 16.1699 154.135 16.765 155.343 19.4959C155.659 20.2136 156.131 20.3712 156.534 19.881C156.727 19.6534 156.762 18.9007 156.727 16.4149C156.674 13.7191 156.621 13.1939 156.359 12.9489C156.009 12.5637 154.573 12.1436 152.927 11.916C152.262 11.8285 151.474 11.671 151.194 11.5834C150.458 11.3383 146.764 11.4084 145.924 11.671Z" fill="#0C1E7D"/>
  </g>
  <defs>
    <clipPath id="clip0_123_22257">
      <rect width="158.006" height="40" fill="white" transform="translate(0.650879 0.204834)"/>
    </clipPath>
  </defs>
</svg>