<svg width="270" height="41" viewBox="0 0 270 41" fill="none" xmlns="http://www.w3.org/2000/svg">
<g clip-path="url(#clip0_123_22240)">
<path fill-rule="evenodd" clip-rule="evenodd" d="M128.045 11.0164C128.045 16.4221 127.505 33.1793 127.505 33.1793C127.505 36.4221 128.585 37.863 131.647 37.863V39.3039H119.58V37.863C122.641 37.863 124.262 36.4221 124.262 33.1793L125.343 5.79112C124.442 3.62821 123.542 2.90776 121.201 2.72879V1.46836H130.386L140.112 27.0546L150.019 1.46836H158.304V2.72879C155.963 2.72879 154.703 3.81023 154.703 6.3326L155.784 32.8198C155.784 36.7846 156.504 37.8645 159.747 37.8645V39.3055H145.878V37.8645C148.579 37.8645 149.842 36.9636 149.66 32.8198C149.66 32.8198 149.118 14.2607 148.94 11.0179L142.277 29.3965C141.277 31.9856 140.434 34.6332 139.754 37.3246L137.595 37.5051C137.054 35.5227 135.614 31.9204 135.614 31.9204C135.614 31.9204 130.025 16.2416 128.045 11.0164ZM116.698 39.4844C115.977 39.3039 115.257 39.3039 114.535 39.3039C113.095 39.3039 110.572 40.0244 107.511 40.0244C95.8029 40.0244 87.1575 32.9972 87.1575 20.0244C87.1575 9.03395 95.2631 0.565879 107.69 0.565879C110.571 0.565879 113.814 1.10737 116.516 2.18729C117.055 1.6458 117.236 1.28633 117.776 0.74637H118.857C118.676 2.72878 117.956 9.21444 117.956 9.21444H116.875C116.155 5.43165 114.173 2.90775 107.869 2.90775C100.304 2.90775 93.4603 8.85345 93.4603 19.8454C93.4603 32.2783 100.485 37.6825 108.23 37.6825C113.274 37.6825 116.335 34.8007 118.317 31.1969L119.578 31.7383L116.698 39.4844ZM82.6544 8.49398H81.3945C81.214 5.07066 80.133 3.9892 77.4311 3.9892H72.2078V32.2783C72.2078 36.9621 73.1084 37.863 76.1712 37.863V39.3039H62.6618V37.863C65.7246 37.863 66.6252 36.9621 66.6252 32.0963V3.9892H61.4019C57.9798 3.9892 57.4385 4.89016 56.5379 8.49398H55.278L56.1786 0.385376L57.0792 0.565879C57.4385 1.46684 58.1602 1.46683 60.3208 1.46683H77.792C81.0351 1.46683 81.7553 1.46683 82.4755 0.385376H83.5566L82.6544 8.49398Z" fill="#0C1E7D"/>
<path fill-rule="evenodd" clip-rule="evenodd" d="M44.4707 40.2048C41.9492 40.2048 39.9676 39.8454 38.5272 39.3039C37.0868 38.9444 36.0057 38.4029 35.466 38.0435C34.7458 38.7639 34.2045 39.6649 34.2045 39.6649L33.1234 39.3054L34.0241 30.8373L35.2856 31.0178C36.0057 34.9811 38.7076 37.8645 44.2918 37.8645C48.6144 37.8645 51.4967 34.2622 51.4967 30.2974C51.4967 27.0545 50.2353 25.4316 45.9126 22.1888C44.4722 21.2878 43.2107 20.5674 42.1297 19.6664C38.1678 17.1456 35.6449 14.2622 35.6449 9.57692C35.6449 4.17118 40.148 0.567357 46.0915 0.567357C49.5135 0.567357 51.6756 1.64881 52.3958 2.00828L53.6558 0.567357L54.5564 0.747848L53.6558 8.49546L52.3958 8.31497C52.3958 4.71268 50.2337 3.08973 46.6312 3.08973C43.2092 3.08973 40.6878 4.89164 40.6878 8.31497C40.6878 11.3788 43.0288 13.3597 45.7306 15.1631C47.171 16.0641 48.2521 16.7846 49.3316 17.505C55.6359 22.0083 57.0763 24.8916 57.0763 29.2159C57.0794 35.5211 52.2154 40.2048 44.4707 40.2048ZM23.9383 8.49393H22.4979C22.4979 5.24957 21.0576 3.98915 18.1753 3.98915H10.0697V18.224H15.293C17.9948 18.224 18.5361 16.783 18.8955 14.4396H20.1554V24.5306H18.8955C18.5361 21.8278 17.9948 20.7463 15.1125 20.7463H10.0697V32.8197C10.0697 37.323 11.1507 37.8645 14.033 37.8645V39.3054H0.343262V37.8645C3.76532 37.8645 4.30508 36.9635 4.30508 32.8197V6.33102C4.30508 3.80865 3.22403 2.72721 0.343262 2.72721V1.46678H19.0744C22.316 1.46678 23.0362 1.28629 23.5775 0.204834H24.839L23.9383 8.49393ZM218.283 10.6553V32.2767C218.283 36.9605 219.361 37.8614 222.243 37.8614V39.3023H200.992V37.8614C202.615 37.8614 204.054 37.3199 204.054 36.24C204.054 35.518 203.875 34.2576 203.512 32.9956L201.89 27.7704H190.004C189.822 28.4924 187.663 34.4366 187.663 36.0595C187.663 37.5004 189.286 37.8614 190.364 37.8614V39.3023H180.457V37.8614C182.258 37.8614 183.7 37.6809 184.96 33.8981L194.147 4.52758C193.605 3.26716 192.887 2.90616 191.627 2.72567V1.46525H199.732L209.456 32.2767C210.358 35.5195 211.257 37.1425 212.699 37.8614C214.861 37.141 215.402 36.4205 215.402 32.2767V6.33102C213.78 4.16812 213.598 2.72721 210.537 2.72721V1.46678H219.723L234.854 27.232V7.59298C234.854 3.62816 233.954 2.72721 230.89 2.72721V1.46678H251.063V2.72721C249.803 2.72721 248.722 3.26869 248.722 4.52911C248.722 5.43007 249.083 6.33103 249.442 7.41248L255.207 19.8454L260.791 7.77347C261.69 6.15206 261.872 5.2511 261.872 4.35015C261.872 3.26869 261.149 2.72721 259.531 2.72721V1.46678H269.076V2.72721C266.735 2.72721 265.291 4.89011 264.213 7.41095L256.828 22.5467V32.4572C256.828 36.783 257.909 37.863 260.791 37.863V39.3039H247.101V37.863C249.984 37.863 251.065 36.783 251.065 32.4572V23.9891L243.138 7.23199C241.699 3.98916 241.158 3.2687 240.256 2.72721C238.455 3.44767 237.915 4.70962 237.915 7.59298V35.3406C237.915 35.3406 238.097 37.5035 238.276 40.0243L235.935 40.2048L218.283 10.6553ZM195.769 8.8534L190.725 25.2511H201.171L195.769 8.8534Z" fill="#0C1E7D"/>
<path fill-rule="evenodd" clip-rule="evenodd" d="M173.433 25.2513H170.732V32.9974C170.732 36.9622 171.81 37.8631 174.874 37.8631V39.3041H161.006V37.8631C163.888 37.8631 164.969 36.7832 164.969 32.8184V7.41268C164.969 3.44939 163.888 2.72893 161.006 2.72893V1.46851H171.452C181.538 1.46851 187.48 4.53085 187.48 12.8184C187.482 21.467 180.278 25.2513 173.433 25.2513ZM171.631 3.98935H170.732V22.5469H172.352C178.298 22.5469 181.359 19.844 181.359 12.9974C181.359 6.15073 178.656 3.98935 171.631 3.98935ZM110.573 32.0964C103.728 32.0964 99.0449 27.2306 99.0449 20.205C99.0449 13.5389 103.909 8.31363 110.573 8.31363C117.057 8.31363 121.92 13.3584 121.92 20.205C121.921 26.8712 116.877 32.0964 110.573 32.0964ZM110.573 10.475C105.891 10.475 104.268 14.9798 104.268 20.205C104.268 25.0708 105.71 29.935 110.573 29.935C115.256 29.935 116.696 25.0693 116.696 20.0245C116.698 15.1603 114.897 10.475 110.573 10.475ZM31.3239 29.935V28.6731C33.1252 28.6731 33.4861 28.1331 33.4861 27.5932C33.4861 26.8712 33.3056 26.3312 33.1252 25.7913C33.1252 25.7913 32.7643 24.3488 32.405 23.2689H25.3805L24.6603 25.6108C24.4814 26.1523 24.3009 26.6922 24.3009 27.4127C24.3009 28.1347 25.0211 28.6731 26.1022 28.6731V29.935H19.0776V28.6731C20.8789 28.6731 21.5991 28.1331 22.3193 26.1523L27.723 9.93505C27.5426 9.21306 27.0013 8.67309 25.9217 8.67309V7.41115H31.6833C33.6487 13.1828 35.6299 18.949 37.6268 24.7098C38.5274 27.7721 39.428 28.6731 40.8684 28.6731V29.935H31.3239ZM28.801 12.4574L26.0991 21.2865H31.6833L28.801 12.4574Z" fill="#0C1E7D"/>
</g>
<defs>
<clipPath id="clip0_123_22240">
<rect width="268.732" height="40" fill="white" transform="translate(0.343262 0.204834)"/>
</clipPath>
</defs>
</svg>
