<svg xmlns="http://www.w3.org/2000/svg" width="146" height="41" viewBox="0 0 146 41" fill="none">
  <g clip-path="url(#clip0_123_22255)">
    <path fill-rule="evenodd" clip-rule="evenodd" d="M27.7815 10.1073H19.2669L14.2769 21.9269L9.28693 10.1073H0.772339C3.86532 17.4335 6.95709 24.7608 10.0513 32.0862L6.62376 40.2046H15.1383C19.3963 30.1189 23.5512 20.1274 27.7815 10.1073ZM136.051 0.267661H145.214L136.928 20.1807H127.764L136.051 0.267661ZM130.017 22.1011C132.87 22.1011 135.183 24.4014 135.183 27.2392C135.183 30.0769 132.87 32.3773 130.017 32.3773C127.164 32.3773 124.851 30.0769 124.851 27.2392C124.851 24.4016 127.164 22.1011 130.017 22.1011ZM112 9.50954C118.416 9.50954 123.617 14.6826 123.617 21.0637C123.617 27.445 118.416 32.6179 112 32.6179C105.583 32.6179 100.382 27.4448 100.382 21.0637C100.382 14.6824 105.584 9.50954 112 9.50954ZM112 16.5523C114.505 16.5523 116.536 18.5722 116.536 21.0639C116.536 23.5556 114.505 25.5756 112 25.5756C109.494 25.5756 107.463 23.5556 107.463 21.0639C107.463 18.5722 109.494 16.5523 112 16.5523ZM87.0586 9.50954C93.4749 9.50954 98.6761 14.6826 98.6761 21.0637C98.6761 27.445 93.4747 32.6179 87.0586 32.6179C80.6423 32.6179 75.4411 27.4448 75.4411 21.0637C75.4411 14.6824 80.6425 9.50954 87.0586 9.50954ZM87.0586 16.5523C89.5639 16.5523 91.595 18.5722 91.595 21.0639C91.595 23.5556 89.5639 25.5756 87.0586 25.5756C84.5532 25.5756 82.5222 23.5556 82.5222 21.0639C82.5222 18.5722 84.5532 16.5523 87.0586 16.5523ZM52.7601 0.204834H60.4425V12.083C60.4425 12.083 61.7866 9.50954 66.2265 9.50954C70.6664 9.50954 73.514 11.4523 73.5709 19.4076V32.3773H65.8885V19.4076C65.8885 17.9118 64.6693 16.6993 63.1654 16.6993C61.6267 16.6993 60.4051 17.9575 60.4435 19.4843L60.4423 32.3773H52.7599L52.7601 0.204834ZM42.2994 10.1073H49.9818V32.3775H42.2994V30.2781C40.5789 31.7464 38.4349 32.6183 36.11 32.6183C30.4444 32.6183 25.8516 27.4452 25.8516 21.0641C25.8516 14.6828 30.4444 9.50995 36.11 9.50995C38.4349 9.50995 40.5791 10.3816 42.2994 11.8501V10.1077V10.1073ZM37.9722 16.5523C40.4776 16.5523 42.5086 18.5722 42.5086 21.0639C42.5086 23.5556 40.4776 25.5756 37.9722 25.5756C35.4669 25.5756 33.4358 23.5556 33.4358 21.0639C33.4358 18.5722 35.4669 16.5523 37.9722 16.5523Z" fill="#0C1E7D"/>
  </g>
  <defs>
    <clipPath id="clip0_123_22255">
      <rect width="144.466" height="40" fill="white" transform="translate(0.76062 0.204834)"/>
    </clipPath>
  </defs>
</svg>