<svg width="1440" height="65" viewBox="0 0 1440 65" fill="none" xmlns="http://www.w3.org/2000/svg">
<g clip-path="url(#clip0_505_3842)">
<g clip-path="url(#clip1_505_3842)">
<g clip-path="url(#clip2_505_3842)">
<rect width="338.298" height="332.753" transform="translate(0 0.204834)" fill="#D96541"/>
<g clip-path="url(#clip3_505_3842)">
<path d="M424.506 166.581H445.039C477.492 166.581 504.043 140.086 504.043 107.706L504.043 59.0795C504.043 26.6998 477.492 0.204773 445.039 0.204773L251.81 0.204773C206.073 0.204773 169 37.4528 169 83.3929C169 129.333 206.073 166.581 251.81 166.581H231.272C198.824 166.581 172.274 193.076 172.274 225.456V274.083C172.274 306.462 198.824 332.957 231.272 332.957L424.506 332.957C470.243 332.957 507.299 295.715 507.299 249.769C507.299 203.823 470.243 166.581 424.506 166.581Z" fill="#0C1E7D"/>
</g>
</g>
<g clip-path="url(#clip4_505_3842)">
<rect width="338.298" height="332.753" transform="translate(338 0.204834)" fill="#F8F2E3"/>
<g clip-path="url(#clip5_505_3842)">
<path d="M762.506 166.581H783.039C815.492 166.581 842.043 140.086 842.043 107.706V59.0795C842.043 26.6998 815.492 0.204773 783.039 0.204773L589.81 0.204773C544.073 0.204773 507 37.4528 507 83.3929C507 129.333 544.073 166.581 589.81 166.581H569.272C536.824 166.581 510.274 193.076 510.274 225.456V274.083C510.274 306.462 536.824 332.957 569.272 332.957L762.506 332.957C808.243 332.957 845.299 295.715 845.299 249.769C845.299 203.823 808.243 166.581 762.506 166.581Z" fill="#D96541"/>
</g>
<g clip-path="url(#clip6_505_3842)">
<path d="M424.506 166.581H445.039C477.492 166.581 504.043 140.086 504.043 107.706L504.043 59.0795C504.043 26.6998 477.492 0.204773 445.039 0.204773L251.81 0.204773C206.073 0.204773 169 37.4528 169 83.3929C169 129.333 206.073 166.581 251.81 166.581H231.272C198.824 166.581 172.274 193.076 172.274 225.456V274.083C172.274 306.462 198.824 332.957 231.272 332.957L424.506 332.957C470.243 332.957 507.299 295.715 507.299 249.769C507.299 203.823 470.243 166.581 424.506 166.581Z" fill="#1642F0"/>
</g>
</g>
<rect width="338.298" height="332.753" transform="translate(676 0.204834)" fill="#D9DDF0"/>
<g clip-path="url(#clip7_505_3842)">
<path d="M1100.51 166.581H1121.04C1153.49 166.581 1180.04 140.086 1180.04 107.706V59.0795C1180.04 26.6998 1153.49 0.204773 1121.04 0.204773L927.81 0.204773C882.073 0.204773 845 37.4528 845 83.3929C845 129.333 882.073 166.581 927.81 166.581H907.272C874.824 166.581 848.274 193.076 848.274 225.456V274.083C848.274 306.462 874.824 332.957 907.272 332.957L1100.51 332.957C1146.24 332.957 1183.3 295.715 1183.3 249.769C1183.3 203.823 1146.24 166.581 1100.51 166.581Z" fill="#F8F2E3"/>
</g>
</g>
<g clip-path="url(#clip8_505_3842)">
<rect width="338.298" height="332.753" transform="translate(1014 0.204834)" fill="#1642F0"/>
<g clip-path="url(#clip9_505_3842)">
<path d="M1438.51 166.581H1459.04C1491.49 166.581 1518.04 140.086 1518.04 107.706V59.0795C1518.04 26.6998 1491.49 0.204773 1459.04 0.204773L1265.81 0.204773C1220.07 0.204773 1183 37.4528 1183 83.3929C1183 129.333 1220.07 166.581 1265.81 166.581H1245.27C1212.82 166.581 1186.27 193.076 1186.27 225.456V274.083C1186.27 306.462 1212.82 332.957 1245.27 332.957L1438.51 332.957C1484.24 332.957 1521.3 295.715 1521.3 249.769C1521.3 203.823 1484.24 166.581 1438.51 166.581Z" fill="#D9DDF0"/>
</g>
</g>
<g clip-path="url(#clip10_505_3842)">
<rect width="338.298" height="332.753" transform="translate(1352.3 0.204834)" fill="#F8F2E3"/>
<g clip-path="url(#clip11_505_3842)">
<path d="M1438.81 166.581H1459.34C1491.79 166.581 1518.34 140.086 1518.34 107.706V59.0795C1518.34 26.6998 1491.79 0.204773 1459.34 0.204773L1266.11 0.204773C1220.37 0.204773 1183.3 37.4528 1183.3 83.3929C1183.3 129.333 1220.37 166.581 1266.11 166.581H1245.57C1213.12 166.581 1186.57 193.076 1186.57 225.456V274.083C1186.57 306.462 1213.12 332.957 1245.57 332.957L1438.81 332.957C1484.54 332.957 1521.6 295.715 1521.6 249.769C1521.6 203.823 1484.54 166.581 1438.81 166.581Z" fill="#D96541"/>
</g>
</g>
</g>
<defs>
<clipPath id="clip0_505_3842">
<rect width="1440" height="64" fill="white" transform="translate(0 0.204834)"/>
</clipPath>
<clipPath id="clip1_505_3842">
<rect width="1014" height="333" fill="white" transform="translate(0 0.204834)"/>
</clipPath>
<clipPath id="clip2_505_3842">
<rect width="338.298" height="333" fill="white" transform="translate(0 0.204834)"/>
</clipPath>
<clipPath id="clip3_505_3842">
<rect width="169" height="333" fill="white" transform="translate(169 0.204834)"/>
</clipPath>
<clipPath id="clip4_505_3842">
<rect width="338.298" height="333" fill="white" transform="translate(338 0.204834)"/>
</clipPath>
<clipPath id="clip5_505_3842">
<rect width="169" height="333" fill="white" transform="translate(507 0.204834)"/>
</clipPath>
<clipPath id="clip6_505_3842">
<rect width="169" height="333" fill="white" transform="translate(338 0.204834)"/>
</clipPath>
<clipPath id="clip7_505_3842">
<rect width="169" height="333" fill="white" transform="translate(845 0.204834)"/>
</clipPath>
<clipPath id="clip8_505_3842">
<rect width="338.298" height="333" fill="white" transform="translate(1014 0.204834)"/>
</clipPath>
<clipPath id="clip9_505_3842">
<rect width="169" height="333" fill="white" transform="translate(1183 0.204834)"/>
</clipPath>
<clipPath id="clip10_505_3842">
<rect width="338.298" height="333" fill="white" transform="translate(1352.3 0.204834)"/>
</clipPath>
<clipPath id="clip11_505_3842">
<rect width="169" height="333" fill="white" transform="translate(1352.3 0.204834)"/>
</clipPath>
</defs>
</svg>
