<?xml version="1.0" standalone="no"?>
<!DOCTYPE svg PUBLIC "-//W3C//DTD SVG 20010904//EN"
 "http://www.w3.org/TR/2001/REC-SVG-20010904/DTD/svg10.dtd">
<svg version="1.0" xmlns="http://www.w3.org/2000/svg"
 width="1920.000000pt" height="1280.000000pt" viewBox="0 0 1920.000000 1280.000000"
 preserveAspectRatio="xMidYMid meet">

<g transform="translate(0.000000,1280.000000) scale(0.100000,-0.100000)"
fill="#000000" stroke="none">
<path d="M4640 12771 c0 -44 44 -91 85 -91 19 0 37 -4 40 -10 3 -5 17 -10 30
-10 13 0 27 -4 30 -10 3 -5 11 -10 16 -10 6 0 -21 36 -58 79 -62 72 -71 79
-105 80 -35 1 -38 -1 -38 -28z"/>
<path d="M12478 12793 c56 -2 148 -2 205 0 56 1 10 3 -103 3 -113 0 -159 -2
-102 -3z"/>
<path d="M13055 12790 c4 -6 11 -8 16 -5 14 9 11 15 -7 15 -8 0 -12 -5 -9 -10z"/>
<path d="M13444 12784 c3 -8 2 -12 -3 -9 -11 6 -26 -32 -22 -53 1 -8 -3 -20
-10 -28 -6 -8 -9 -23 -6 -33 3 -12 -1 -22 -9 -25 -8 -3 -14 1 -14 9 0 20 -19
19 -26 0 -4 -8 -10 -15 -16 -15 -10 0 0 42 13 50 16 11 20 56 6 68 -12 11 -16
5 -21 -32 -4 -24 -13 -47 -21 -50 -8 -3 -12 -12 -9 -20 4 -10 -5 -15 -35 -18
-23 -2 -41 1 -41 6 0 6 -5 5 -12 -2 -8 -8 -50 -12 -122 -12 -60 0 -107 -3
-103 -6 3 -3 55 -6 116 -5 95 2 111 -1 121 -16 9 -15 11 -15 6 -1 -4 13 4 17
42 20 66 5 92 -1 92 -23 0 -10 -4 -21 -10 -24 -5 -3 -9 -16 -9 -28 1 -20 2
-21 6 -2 3 11 9 22 13 25 3 3 12 14 18 25 6 11 12 14 12 8 0 -7 5 -13 11 -13
6 0 8 9 4 21 -7 20 -4 21 69 17 65 -3 76 -1 76 13 0 14 -10 17 -48 15 -43 -1
-48 1 -44 17 2 10 -2 25 -10 35 -21 23 -19 54 4 70 20 15 16 32 -9 32 -10 0
-13 -6 -9 -16z m1 -124 c1 -11 -2 -20 -6 -20 -10 0 -20 30 -13 42 8 13 17 2
19 -22z"/>
<path d="M13603 12786 c3 -8 9 -31 13 -50 5 -32 10 -36 33 -34 34 4 49 18 43
42 -3 12 -1 17 6 12 11 -6 42 19 42 35 0 5 -32 9 -71 9 -58 0 -70 -3 -66 -14z
m54 -48 c-3 -8 -6 -5 -6 6 -1 11 2 17 5 13 3 -3 4 -12 1 -19z"/>
<path d="M13751 12774 c-12 -15 -21 -33 -21 -40 0 -7 -9 -18 -20 -24 -11 -6
-20 -16 -20 -22 0 -9 3 -9 12 0 7 7 16 12 21 12 11 0 -12 -21 -41 -37 -33 -19
-48 -16 -29 5 19 21 22 32 7 32 -5 0 -10 -7 -10 -15 0 -17 -16 -20 -25 -5 -3
6 -12 10 -18 10 -7 0 -4 -6 5 -14 19 -14 14 -28 -6 -20 -7 3 -19 -2 -26 -11
-11 -13 -6 -15 38 -15 41 0 50 -3 46 -14 -3 -9 -12 -12 -21 -9 -11 4 -14 2 -9
-8 3 -8 9 -22 12 -31 8 -21 44 -24 44 -4 0 8 -5 16 -11 18 -7 2 -9 13 -5 25 6
18 15 21 71 22 37 0 65 -4 65 -9 0 -6 -11 -10 -25 -10 -26 0 -34 -15 -12 -23
6 -3 2 -6 -10 -6 -12 -1 -25 4 -28 9 -3 6 -13 10 -21 10 -10 0 -13 -7 -8 -25
4 -15 2 -25 -5 -25 -6 0 -11 -11 -11 -25 0 -28 -29 -47 -68 -44 -15 1 -34 -1
-42 -4 -8 -3 -22 -5 -30 -5 -8 0 -42 -3 -75 -6 -33 -3 -102 -8 -152 -12 -51
-4 -93 -10 -93 -14 0 -8 45 -7 268 9 85 7 170 12 190 12 20 0 112 2 205 5 141
4 168 2 173 -10 5 -13 9 -12 27 4 11 11 24 20 29 20 13 0 9 -17 -7 -30 -15
-13 -22 -45 -7 -36 15 9 5 -42 -11 -59 -12 -12 -33 -16 -74 -15 -79 1 -445
-17 -573 -29 -58 -6 -117 -10 -132 -11 -16 0 -28 -4 -28 -10 0 -5 6 -8 13 -5
21 6 185 16 377 21 102 3 272 8 379 11 146 5 192 3 187 -5 -4 -7 -16 -12 -27
-12 -16 0 -19 -5 -14 -20 4 -11 2 -20 -4 -20 -6 0 -11 -5 -11 -10 0 -16 34 9
56 41 10 16 23 29 27 29 12 0 -44 -76 -65 -89 -15 -9 -19 -7 -24 14 -11 42
-64 45 -64 3 0 -17 -5 -19 -27 -15 -32 6 -53 -1 -53 -18 0 -12 -67 -19 -320
-32 -183 -9 -154 -24 36 -18 93 3 214 8 268 11 81 6 98 5 91 -6 -6 -9 -4 -12
6 -8 10 4 14 -2 14 -17 0 -13 -4 -23 -9 -22 -6 1 -12 -6 -14 -15 -6 -28 42
-24 55 5 6 13 27 34 47 47 20 14 36 33 36 43 0 10 5 15 10 12 6 -4 10 9 10 32
l1 38 15 -27 c18 -35 23 -35 16 -3 -2 15 0 25 7 25 6 0 11 -8 11 -17 0 -14 2
-15 13 -4 10 11 10 14 0 18 -16 6 -17 29 -3 38 6 4 18 1 27 -7 10 -8 14 -8 10
-1 -5 7 1 13 15 15 15 2 23 10 23 23 0 11 9 25 20 31 11 6 19 16 17 23 -1 6
11 19 28 29 16 9 28 23 25 30 -2 7 3 12 14 12 10 0 29 15 42 32 23 31 96 115
129 148 9 8 27 28 40 44 22 26 23 28 5 22 -18 -7 -19 -6 -4 9 9 9 25 18 35 19
10 2 18 11 18 20 -1 8 2 14 6 11 4 -3 13 1 19 8 9 11 2 14 -32 15 -33 2 -46
-3 -60 -20 l-18 -23 11 23 11 22 -155 0 -155 0 -15 -27 c-19 -37 -85 -108 -92
-100 -4 3 13 27 37 52 74 79 79 75 -93 75 l-153 0 -19 -34 c-23 -43 -93 -112
-103 -102 -4 4 0 12 10 18 15 8 16 12 5 26 -11 15 -11 15 3 5 18 -14 25 -8 68
55 l22 32 -150 0 -150 0 -20 -26z m899 -57 l-34 -32 30 36 c16 20 31 34 33 32
3 -2 -10 -18 -29 -36z m-690 -90 c-6 -7 -21 -29 -34 -49 -20 -30 -21 -36 -8
-31 9 3 3 -4 -14 -15 -18 -11 -35 -25 -38 -31 -4 -6 -14 -11 -22 -11 -8 0 -13
4 -10 9 3 5 -1 11 -9 15 -8 3 -17 1 -20 -4 -4 -6 -21 -9 -38 -9 l-32 2 35 6
c24 4 31 9 22 14 -7 5 -19 6 -27 3 -8 -3 -22 -3 -30 1 -12 4 -10 9 11 19 36
19 54 17 54 -5 0 -27 44 -16 80 21 17 16 30 31 30 33 0 10 46 53 52 49 4 -3 3
-10 -2 -17z m297 -1 c-8 -8 -17 -12 -21 -9 -3 3 2 12 12 19 22 16 29 9 9 -10z
m293 -19 c0 -2 -9 -12 -20 -22 -24 -21 -27 -14 -4 9 15 15 24 20 24 13z m-338
-44 c-25 -35 -76 -82 -71 -65 5 16 83 102 88 97 2 -2 -6 -16 -17 -32z m326
-12 c-13 -15 -25 -27 -27 -25 -4 4 39 54 47 54 2 0 -7 -13 -20 -29z m-28 5 c0
-2 -7 -7 -16 -10 -8 -3 -12 -2 -9 4 6 10 25 14 25 6z m-40 -40 c0 -2 -7 -7
-16 -10 -8 -3 -12 -2 -9 4 6 10 25 14 25 6z m-319 -73 c-8 -15 -10 -15 -11 -2
0 17 10 32 18 25 2 -3 -1 -13 -7 -23z m259 17 c0 -5 -4 -10 -10 -10 -5 0 -10
5 -10 10 0 6 5 10 10 10 6 0 10 -4 10 -10z m31 -31 c-12 -19 -21 -30 -21 -26
0 14 31 69 36 64 3 -3 -4 -20 -15 -38z m-164 -11 c-3 -8 -6 -5 -6 6 -1 11 2
17 5 13 3 -3 4 -12 1 -19z m103 7 c0 -3 -16 -23 -35 -44 -25 -28 -41 -37 -55
-34 -11 3 -17 9 -15 14 3 4 11 6 18 4 14 -6 67 37 67 54 0 6 5 11 10 11 6 0
10 -2 10 -5z m-120 -42 c0 -43 -5 -41 -13 5 -4 18 -2 32 3 32 6 0 10 -16 10
-37z m-85 -233 c-10 -11 -21 -17 -24 -14 -3 3 3 12 13 20 28 20 32 17 11 -6z"/>
<path d="M15136 12688 c-3 -62 -11 -770 -16 -1573 -6 -803 -17 -2065 -25
-2805 -8 -740 -19 -1903 -25 -2585 -19 -2376 -30 -3571 -35 -3735 -3 -91 -8
-570 -11 -1065 -3 -495 -7 -906 -10 -912 -2 -8 6 -13 20 -13 l23 0 7 937 c13
1980 16 2383 21 2853 3 267 7 1032 10 1700 3 668 7 1334 10 1480 3 146 7 596
10 1000 3 404 10 1124 15 1600 5 476 12 1205 15 1620 3 415 8 947 10 1183 2
235 0 427 -4 427 -5 0 -11 -51 -15 -112z"/>
<path d="M16639 12728 c-1 -40 0 -210 1 -378 2 -168 3 -386 3 -485 0 -99 0
-331 1 -515 0 -184 0 -447 -1 -585 0 -137 0 -374 1 -525 0 -151 1 -385 0 -520
0 -135 0 -369 0 -520 0 -334 0 -403 -1 -885 -1 -382 7 -3767 10 -3945 0 -52 0
-284 -1 -515 -1 -231 0 -780 3 -1220 3 -440 5 -1133 5 -1540 0 -407 3 -820 6
-918 l7 -178 182 1 c207 2 195 -4 195 87 0 29 6 48 20 61 18 17 19 22 8 53
-15 42 -88 143 -178 248 -158 184 -156 177 -164 383 -8 193 -6 201 72 266 44
37 53 41 105 41 31 0 61 2 65 5 5 3 12 35 15 71 4 38 13 72 21 81 8 8 13 21
10 29 -4 9 0 15 9 15 10 0 13 7 10 20 -6 23 6 26 26 7 8 -6 -1 11 -20 38 -18
28 -90 106 -160 175 -70 69 -134 139 -143 157 -13 26 -16 66 -16 209 l0 178
50 48 c35 34 58 48 78 48 43 0 93 18 119 42 20 19 22 28 17 70 -6 40 -2 57 22
105 16 32 35 62 42 66 31 20 4 51 -168 188 -52 42 -108 91 -125 108 l-30 32
-5 177 c-4 120 -2 187 6 207 15 39 49 69 102 90 23 10 42 21 42 25 0 4 20 11
45 14 25 4 45 13 45 19 1 7 5 42 9 79 12 91 39 132 96 149 25 7 45 17 45 21 0
4 7 8 15 8 8 0 15 3 15 8 -1 8 -146 106 -238 161 -194 115 -190 108 -199 339
l-6 168 49 39 c27 22 65 49 84 59 19 11 56 35 81 55 44 35 46 38 46 91 1 63
16 108 38 116 8 4 15 16 15 29 0 18 11 27 49 44 27 11 54 21 60 21 34 0 -17
43 -104 88 -33 17 -108 54 -167 82 -142 66 -141 63 -146 288 l-4 174 63 60
c35 33 78 66 94 73 57 25 66 45 78 164 5 61 14 108 19 105 4 -3 8 2 8 11 0 9
7 29 15 44 12 24 23 29 65 35 34 5 50 11 50 21 0 8 5 15 10 15 6 0 10 5 10 10
0 6 -11 10 -24 10 -14 0 -26 7 -29 18 -5 17 -108 63 -217 97 -30 9 -68 29 -83
43 -26 24 -28 33 -26 87 1 33 -3 69 -8 80 -18 33 -27 114 -14 129 8 9 8 35 1
92 -10 78 -10 79 18 118 16 22 43 47 61 57 17 9 56 44 86 78 l55 62 0 85 c0
73 3 90 26 125 14 23 23 43 20 47 -3 3 3 11 14 19 11 8 20 20 20 27 0 8 20 19
44 25 28 7 47 18 50 28 2 10 7 28 11 41 5 17 2 22 -13 22 -11 0 -46 8 -78 19
-33 10 -85 19 -116 20 -95 3 -160 19 -188 46 -24 25 -25 29 -28 195 -2 110 1
176 8 190 6 11 30 32 53 47 46 28 137 113 137 127 0 5 7 14 15 20 10 8 18 47
26 131 10 116 12 121 47 165 56 68 104 110 127 110 34 0 47 14 40 43 -12 48
-24 51 -208 49 -192 -2 -220 4 -236 50 -6 17 -11 102 -11 190 l0 158 40 28
c175 118 200 152 200 275 1 40 5 92 11 117 6 25 13 59 16 75 6 34 42 75 93
107 19 12 50 36 69 53 18 16 37 29 42 28 5 -2 9 8 9 22 0 14 5 25 10 25 6 0
10 -7 10 -15 0 -8 5 -15 10 -15 6 0 10 9 10 20 0 13 -7 20 -20 20 -13 0 -20 7
-20 20 0 11 -5 20 -10 20 -21 0 -90 -25 -90 -32 0 -5 -24 -8 -54 -8 -29 0 -73
-7 -97 -16 -24 -8 -73 -18 -110 -21 -78 -7 -125 12 -135 54 -8 31 2 300 11
325 4 10 32 34 63 54 151 98 150 97 166 146 9 27 16 81 16 127 0 45 4 81 9 81
4 0 11 22 14 50 7 59 20 86 70 139 20 22 37 45 37 50 0 6 15 18 33 27 17 9 37
25 44 34 7 10 26 23 43 30 16 7 30 19 30 26 0 7 14 21 30 29 17 9 28 20 25 25
-4 6 2 10 12 10 14 0 15 2 4 9 -11 7 -11 9 0 13 11 4 10 8 -4 22 -9 9 -21 15
-26 11 -6 -3 -14 3 -20 12 -6 10 -11 12 -11 6 0 -7 -8 -13 -18 -13 -10 0 -24
-6 -30 -12 -7 -7 -16 -13 -21 -13 -4 0 -27 -10 -52 -21 -24 -12 -73 -32 -109
-44 -36 -12 -83 -30 -106 -41 -53 -25 -158 -36 -179 -19 -12 10 -15 42 -15
177 l0 165 33 32 c18 17 59 49 91 71 32 22 82 60 110 84 l51 45 7 115 c8 160
26 242 61 280 15 17 32 31 37 31 6 0 10 9 10 20 0 13 10 24 25 30 13 5 31 22
39 38 8 16 24 32 36 35 11 3 20 12 20 21 0 10 9 16 23 16 22 0 59 33 55 48 -5
15 45 70 59 65 9 -3 16 2 20 15 2 11 17 25 31 32 41 17 92 67 92 90 0 13 7 20
20 20 11 0 20 5 20 10 0 6 -9 10 -20 10 -11 0 -20 7 -20 15 0 8 -4 15 -10 15
-5 0 -10 -4 -10 -9 0 -5 -17 -12 -37 -16 -21 -4 -48 -18 -62 -31 -13 -13 -32
-24 -43 -24 -28 0 -58 -18 -86 -51 -13 -16 -30 -29 -38 -29 -8 0 -31 -10 -52
-23 -20 -13 -59 -34 -87 -47 -27 -13 -52 -27 -55 -31 -3 -5 -22 -15 -43 -24
-20 -8 -37 -19 -37 -24 0 -5 -14 -11 -30 -15 -17 -3 -42 -18 -55 -32 -19 -20
-38 -28 -74 -32 -70 -6 -74 4 -69 194 l3 155 76 72 c105 100 147 137 156 137
4 0 35 30 69 66 61 65 61 67 58 118 -1 28 4 85 12 127 15 77 9 123 -19 141 -9
6 -9 8 1 8 6 0 12 9 12 19 0 11 5 23 10 26 6 3 10 17 10 31 l0 24 -230 0 -230
0 -1 -72z"/>
<path d="M18580 12771 c0 -16 7 -34 15 -41 8 -7 15 -21 15 -31 0 -11 9 -27 20
-36 11 -10 20 -21 20 -25 0 -4 14 -27 31 -50 46 -65 73 -111 76 -127 2 -15
101 -110 116 -111 15 0 -45 97 -125 205 -68 91 -47 135 73 154 42 7 88 9 102
6 15 -4 39 0 61 10 29 14 36 23 36 46 l0 29 -220 0 -220 0 0 -29z"/>
<path d="M12030 12780 c-52 -4 2 -5 120 -2 118 2 217 6 219 8 6 6 -229 1 -339
-6z"/>
<path d="M11778 12763 c12 -2 32 -2 45 0 12 2 2 4 -23 4 -25 0 -35 -2 -22 -4z"/>
<path d="M11878 12763 c7 -3 16 -2 19 1 4 3 -2 6 -13 5 -11 0 -14 -3 -6 -6z"/>
<path d="M11570 12750 c-12 -8 -11 -10 8 -10 12 0 22 5 22 10 0 13 -11 13 -30
0z"/>
<path d="M11648 12753 c17 -2 47 -2 65 0 17 2 3 4 -33 4 -36 0 -50 -2 -32 -4z"/>
<path d="M13535 12750 c3 -5 8 -10 11 -10 2 0 4 5 4 10 0 6 -5 10 -11 10 -5 0
-7 -4 -4 -10z"/>
<path d="M11483 12743 c9 -2 25 -2 35 0 9 3 1 5 -18 5 -19 0 -27 -2 -17 -5z"/>
<path d="M11393 12733 c9 -2 25 -2 35 0 9 3 1 5 -18 5 -19 0 -27 -2 -17 -5z"/>
<path d="M11198 12723 c18 -2 45 -2 60 0 15 2 0 4 -33 4 -33 0 -45 -2 -27 -4z"/>
<path d="M10858 12713 c6 -2 18 -2 25 0 6 3 1 5 -13 5 -14 0 -19 -2 -12 -5z"/>
<path d="M4901 12696 c-10 -12 -7 -18 19 -31 39 -20 115 -17 115 5 0 11 -14
16 -50 18 -27 2 -55 8 -61 13 -7 6 -15 4 -23 -5z"/>
<path d="M10508 12703 c6 -2 18 -2 25 0 6 3 1 5 -13 5 -14 0 -19 -2 -12 -5z"/>
<path d="M13281 12674 c0 -11 3 -14 6 -6 3 7 2 16 -1 19 -3 4 -6 -2 -5 -13z"/>
<path d="M4705 12660 c-3 -5 -1 -10 4 -10 6 0 11 5 11 10 0 6 -2 10 -4 10 -3
0 -8 -4 -11 -10z"/>
<path d="M12590 12600 l-125 -6 152 -1 c84 -1 165 2 180 7 33 10 -6 10 -207 0z"/>
<path d="M12848 12603 c12 -2 32 -2 45 0 12 2 2 4 -23 4 -25 0 -35 -2 -22 -4z"/>
<path d="M12383 12593 c9 -2 23 -2 30 0 6 3 -1 5 -18 5 -16 0 -22 -2 -12 -5z"/>
<path d="M13502 12589 c2 -6 7 -10 11 -10 4 1 15 1 25 1 14 0 15 2 2 10 -20
13 -43 13 -38 -1z"/>
<path d="M12103 12583 c26 -2 68 -2 95 0 26 2 4 3 -48 3 -52 0 -74 -1 -47 -3z"/>
<path d="M12268 12583 c12 -2 32 -2 45 0 12 2 2 4 -23 4 -25 0 -35 -2 -22 -4z"/>
<path d="M11750 12570 c-13 -8 -13 -10 2 -10 9 0 20 5 23 10 8 13 -5 13 -25 0z"/>
<path d="M5120 12552 c-39 -13 47 -47 96 -38 58 11 42 34 -26 38 -33 1 -65 2
-70 0z"/>
<path d="M11445 12550 c-3 -5 -1 -10 4 -10 6 0 11 5 11 10 0 6 -2 10 -4 10 -3
0 -8 -4 -11 -10z"/>
<path d="M11508 12553 c12 -2 32 -2 45 0 12 2 2 4 -23 4 -25 0 -35 -2 -22 -4z"/>
<path d="M11368 12543 c7 -3 16 -2 19 1 4 3 -2 6 -13 5 -11 0 -14 -3 -6 -6z"/>
<path d="M11118 12533 c12 -2 30 -2 40 0 9 3 -1 5 -23 4 -22 0 -30 -2 -17 -4z"/>
<path d="M10818 12523 c6 -2 18 -2 25 0 6 3 1 5 -13 5 -14 0 -19 -2 -12 -5z"/>
<path d="M13510 12505 c0 -8 7 -15 15 -15 9 0 12 6 9 15 -4 8 -10 15 -15 15
-5 0 -9 -7 -9 -15z"/>
<path d="M4970 12447 c0 -32 6 -65 13 -73 41 -51 48 -55 81 -48 20 3 43 1 57
-7 22 -11 -6 24 -118 150 l-32 36 -1 -58z"/>
<path d="M4702 12425 c0 -16 2 -22 5 -12 2 9 2 23 0 30 -3 6 -5 -1 -5 -18z"/>
<path d="M13130 12439 c-30 -5 -208 -13 -395 -18 l-340 -10 339 5 c357 5 486
11 486 25 0 10 -14 10 -90 -2z"/>
<path d="M12338 12413 c6 -2 18 -2 25 0 6 3 1 5 -13 5 -14 0 -19 -2 -12 -5z"/>
<path d="M17105 12410 c-3 -5 -1 -10 4 -10 6 0 11 5 11 10 0 6 -2 10 -4 10 -3
0 -8 -4 -11 -10z"/>
<path d="M11797 12403 c18 -2 50 -2 70 0 21 2 7 4 -32 4 -38 0 -55 -2 -38 -4z"/>
<path d="M11938 12403 c6 -2 18 -2 25 0 6 3 1 5 -13 5 -14 0 -19 -2 -12 -5z"/>
<path d="M12073 12403 c31 -2 83 -2 115 0 31 2 5 3 -58 3 -63 0 -89 -1 -57 -3z"/>
<path d="M14020 12393 c-13 -15 -12 -16 4 -10 10 4 20 7 22 7 2 0 4 5 4 10 0
15 -13 12 -30 -7z"/>
<path d="M11588 12393 c12 -2 30 -2 40 0 9 3 -1 5 -23 4 -22 0 -30 -2 -17 -4z"/>
<path d="M11173 12373 c9 -2 23 -2 30 0 6 3 -1 5 -18 5 -16 0 -22 -2 -12 -5z"/>
<path d="M5560 12326 c0 -25 5 -46 10 -46 6 0 10 18 10 39 0 22 -4 43 -10 46
-6 4 -10 -12 -10 -39z"/>
<path d="M13900 12360 c0 -5 4 -10 9 -10 6 0 13 5 16 10 3 6 -1 10 -9 10 -9 0
-16 -4 -16 -10z"/>
<path d="M17880 12295 c0 -4 9 -18 20 -32 11 -14 20 -22 20 -18 0 4 -9 18 -20
32 -11 14 -20 22 -20 18z"/>
<path d="M13130 12282 c0 -5 28 -7 63 -5 95 6 100 11 15 12 -43 0 -78 -3 -78
-7z"/>
<path d="M13098 12273 c7 -3 16 -2 19 1 4 3 -2 6 -13 5 -11 0 -14 -3 -6 -6z"/>
<path d="M12670 12260 l-125 -6 122 -2 c73 -1 124 2 128 8 3 6 5 9 3 8 -2 -1
-59 -5 -128 -8z"/>
<path d="M12108 12243 c7 -3 16 -2 19 1 4 3 -2 6 -13 5 -11 0 -14 -3 -6 -6z"/>
<path d="M12168 12243 c12 -2 32 -2 45 0 12 2 2 4 -23 4 -25 0 -35 -2 -22 -4z"/>
<path d="M12363 12243 c9 -2 23 -2 30 0 6 3 -1 5 -18 5 -16 0 -22 -2 -12 -5z"/>
<path d="M11543 12233 c9 -2 23 -2 30 0 6 3 -1 5 -18 5 -16 0 -22 -2 -12 -5z"/>
<path d="M11718 12233 c7 -3 16 -2 19 1 4 3 -2 6 -13 5 -11 0 -14 -3 -6 -6z"/>
<path d="M18990 12221 c0 -22 129 -153 142 -145 4 3 -10 28 -32 55 -22 28 -40
57 -40 64 0 16 -38 45 -57 45 -7 0 -13 -9 -13 -19z"/>
<path d="M14260 12189 c0 -5 5 -7 10 -4 6 3 10 8 10 11 0 2 -4 4 -10 4 -5 0
-10 -5 -10 -11z"/>
<path d="M13462 12170 c-117 -9 -147 -20 -51 -20 85 0 169 11 169 21 0 5 -3 8
-7 8 -5 -1 -54 -5 -111 -9z"/>
<path d="M13275 12150 l-50 -7 45 -1 c25 -1 52 3 60 8 8 5 11 9 5 8 -5 -1 -32
-4 -60 -8z"/>
<path d="M13110 12143 c-41 -2 -78 -7 -83 -12 -10 -10 164 -1 183 10 12 7 11
8 -5 7 -11 -1 -54 -4 -95 -5z"/>
<path d="M5241 12124 c0 -11 3 -14 6 -6 3 7 2 16 -1 19 -3 4 -6 -2 -5 -13z"/>
<path d="M12988 12123 c7 -3 16 -2 19 1 4 3 -2 6 -13 5 -11 0 -14 -3 -6 -6z"/>
<path d="M12858 12113 c12 -2 32 -2 45 0 12 2 2 4 -23 4 -25 0 -35 -2 -22 -4z"/>
<path d="M12558 12103 c23 -2 59 -2 80 0 20 2 1 4 -43 4 -44 0 -61 -2 -37 -4z"/>
<path d="M13953 12096 c3 -8 1 -17 -6 -20 -9 -3 -8 -8 3 -15 12 -8 8 -11 -17
-11 -20 0 -33 5 -33 13 0 9 -2 9 -9 -1 -5 -8 -28 -13 -62 -13 -30 1 -79 -1
-109 -3 -30 -2 -149 -9 -265 -16 -115 -7 -213 -15 -217 -19 -4 -3 46 -3 110 0
217 12 672 22 672 15 0 -4 -11 -22 -25 -40 -16 -21 -23 -40 -19 -51 9 -22 -13
-36 -40 -26 -12 5 -37 7 -56 5 -19 -2 -107 -5 -195 -9 -614 -21 -800 -37 -374
-31 144 2 239 0 247 -7 8 -6 12 -6 12 1 0 12 49 22 56 11 2 -5 19 -6 37 -3
l32 6 -25 -15 c-16 -9 -29 -10 -37 -4 -9 6 -16 2 -23 -14 -6 -13 -28 -35 -48
-48 -35 -22 -36 -22 -18 -2 22 24 15 41 -9 21 -10 -8 -15 -9 -15 -1 0 6 6 12
13 13 6 0 17 2 22 2 17 2 35 17 35 28 0 7 -4 7 -12 0 -7 -6 -30 -13 -51 -17
-28 -6 -37 -11 -32 -22 4 -11 1 -13 -11 -9 -9 4 -23 1 -30 -5 -10 -8 -14 -8
-14 0 0 6 -9 11 -20 11 -11 0 -20 -7 -20 -15 0 -8 -4 -15 -10 -15 -5 0 -7 7
-3 16 5 14 2 14 -23 -2 l-29 -18 25 30 c14 16 18 23 10 17 -8 -7 -21 -13 -30
-13 -9 0 -27 -12 -40 -27 -12 -16 -31 -38 -42 -49 l-19 -22 101 -1 c55 -1 107
-4 114 -7 8 -3 24 7 37 25 13 17 27 31 32 31 6 0 2 -9 -8 -20 -10 -11 -16 -22
-14 -25 6 -5 284 -7 321 -2 29 4 134 111 132 134 -1 7 1 11 5 9 4 -3 18 4 31
15 21 16 23 20 10 29 -11 7 -11 10 -2 10 9 0 10 5 4 18 -7 13 -1 27 22 58 29
36 35 39 61 32 27 -7 63 7 50 20 -2 3 -11 -1 -20 -8 -23 -19 -18 -4 6 18 l20
20 -28 0 c-15 0 -39 -7 -52 -15 -13 -8 -21 -11 -17 -5 3 5 -5 13 -19 16 -14 4
-25 13 -25 21 0 18 -16 20 -23 3 -4 -10 -6 -10 -6 0 -1 6 -6 12 -12 12 -6 0
-9 -6 -6 -14z m-16 -226 c-1 -10 -3 -17 -5 -15 -3 2 -13 -6 -23 -18 -26 -32
-23 -11 4 23 27 35 26 35 24 10z m-62 -27 c-8 -7 -16 -13 -18 -13 -7 0 -3 23
7 39 7 10 10 11 16 0 5 -7 2 -18 -5 -26z"/>
<path d="M12253 12093 c26 -2 67 -2 90 0 23 2 2 3 -48 3 -49 0 -68 -1 -42 -3z"/>
<path d="M5337 12070 c7 -25 23 -37 23 -17 0 8 -6 20 -14 26 -12 10 -13 8 -9
-9z"/>
<path d="M11528 12083 c7 -3 16 -2 19 1 4 3 -2 6 -13 5 -11 0 -14 -3 -6 -6z"/>
<path d="M11653 12083 c9 -2 25 -2 35 0 9 3 1 5 -18 5 -19 0 -27 -2 -17 -5z"/>
<path d="M11763 12083 c9 -2 23 -2 30 0 6 3 -1 5 -18 5 -16 0 -22 -2 -12 -5z"/>
<path d="M11923 12083 c15 -2 39 -2 55 0 15 2 2 4 -28 4 -30 0 -43 -2 -27 -4z"/>
<path d="M12505 12050 c-3 -5 -2 -10 4 -10 5 0 13 5 16 10 3 6 2 10 -4 10 -5
0 -13 -4 -16 -10z"/>
<path d="M13075 12000 l-40 -7 50 -1 c28 -1 57 3 65 8 18 11 -11 11 -75 0z"/>
<path d="M14061 11996 c-10 -12 -8 -13 8 -9 12 3 18 9 15 14 -7 12 -10 11 -23
-5z"/>
<path d="M13961 11984 c0 -11 3 -14 6 -6 3 7 2 16 -1 19 -3 4 -6 -2 -5 -13z"/>
<path d="M12863 11983 c9 -2 25 -2 35 0 9 3 1 5 -18 5 -19 0 -27 -2 -17 -5z"/>
<path d="M12718 11973 c23 -2 61 -2 85 0 23 2 4 4 -43 4 -47 0 -66 -2 -42 -4z"/>
<path d="M14036 11961 c-4 -7 -5 -15 -2 -18 9 -9 19 4 14 18 -4 11 -6 11 -12
0z"/>
<path d="M12053 11943 c9 -2 23 -2 30 0 6 3 -1 5 -18 5 -16 0 -22 -2 -12 -5z"/>
<path d="M5619 11880 c34 -29 101 -25 101 6 0 11 -16 14 -62 14 l-63 -1 24
-19z"/>
<path d="M12712 11880 c0 -14 2 -19 5 -12 2 6 2 18 0 25 -3 6 -5 1 -5 -13z"/>
<path d="M12550 11880 c0 -5 5 -10 10 -10 6 0 10 5 10 10 0 6 -4 10 -10 10 -5
0 -10 -4 -10 -10z"/>
<path d="M5460 11855 c0 -8 5 -15 10 -15 6 0 10 7 10 15 0 8 -4 15 -10 15 -5
0 -10 -7 -10 -15z"/>
<path d="M12795 11863 c-24 -3 -34 -11 -43 -36 l-11 -32 20 28 c13 16 30 27
45 27 13 0 24 5 24 10 0 6 -1 9 -2 8 -2 0 -17 -3 -33 -5z"/>
<path d="M12893 11863 c26 -2 67 -2 90 0 23 2 2 3 -48 3 -49 0 -68 -1 -42 -3z"/>
<path d="M12608 11843 c23 -2 59 -2 80 0 20 2 1 4 -43 4 -44 0 -61 -2 -37 -4z"/>
<path d="M12996 11818 c-9 -12 -16 -28 -16 -35 0 -17 -20 -17 -20 0 0 6 -5 4
-11 -5 -12 -21 -35 -24 -43 -5 -5 10 -7 10 -12 0 -10 -22 -22 -14 -17 10 4 21
3 20 -19 -5 -13 -16 -33 -28 -43 -27 -11 0 -14 3 -7 6 13 5 17 43 4 43 -14 0
-31 -22 -26 -35 3 -7 -5 -16 -18 -20 -16 -6 1 -10 62 -15 47 -3 90 -2 97 3 7
5 18 7 25 4 7 -3 4 -6 -7 -6 -16 -1 -17 -3 -5 -11 10 -6 21 -3 36 11 18 17 22
18 27 5 3 -8 1 -17 -6 -19 -7 -3 42 -3 108 -1 111 4 121 6 142 29 22 23 32 52
14 41 -4 -3 -6 7 -4 22 4 25 3 25 -10 10 -8 -10 -20 -18 -27 -18 -7 0 -19 -8
-26 -17 -13 -17 -13 -17 -14 1 0 15 -3 16 -14 7 -11 -9 -15 -8 -20 5 -6 15 -8
16 -24 0 -23 -20 -32 -20 -32 1 0 14 -4 12 -25 -7 -14 -13 -25 -20 -25 -16 0
5 -7 2 -16 -5 -15 -12 -16 -11 -9 11 7 22 6 23 -9 11 -21 -18 -21 -3 1 21 9
10 14 21 11 24 -3 3 -13 -5 -22 -18z"/>
<path d="M13270 11829 c0 -5 5 -7 10 -4 6 3 10 8 10 11 0 2 -4 4 -10 4 -5 0
-10 -5 -10 -11z"/>
<path d="M5560 11826 c0 -2 8 -10 18 -17 15 -13 16 -12 3 4 -13 16 -21 21 -21
13z"/>
<path d="M12147 11823 c18 -2 50 -2 70 0 21 2 7 4 -32 4 -38 0 -55 -2 -38 -4z"/>
<path d="M11978 11813 c12 -2 32 -2 45 0 12 2 2 4 -23 4 -25 0 -35 -2 -22 -4z"/>
<path d="M11627 11803 c18 -2 50 -2 70 0 21 2 7 4 -32 4 -38 0 -55 -2 -38 -4z"/>
<path d="M12659 11778 c-12 -23 -12 -23 10 -4 23 21 26 26 11 26 -5 0 -15 -10
-21 -22z"/>
<path d="M11248 11783 c12 -2 30 -2 40 0 9 3 -1 5 -23 4 -22 0 -30 -2 -17 -4z"/>
<path d="M12585 11779 c-4 -6 -5 -12 -2 -15 2 -3 7 2 10 11 7 17 1 20 -8 4z"/>
<path d="M12721 11776 c-7 -9 -17 -13 -22 -10 -5 3 -9 -1 -9 -10 0 -11 -20
-16 -87 -21 -122 -9 -132 -12 -37 -14 149 -2 199 14 176 55 -7 13 -10 13 -21
0z"/>
<path d="M3650 11759 c-56 -25 -105 -71 -133 -124 -24 -46 -35 -209 -36 -541
-1 -216 7 -254 66 -323 79 -92 209 -120 318 -67 58 29 93 64 128 130 21 40 22
53 25 381 2 244 0 352 -9 383 -17 62 -96 146 -156 166 -64 22 -148 20 -203 -5z
m72 -236 c13 -12 18 -31 18 -74 0 -50 -3 -60 -26 -78 -33 -26 -54 -26 -82 -1
-38 36 -40 111 -4 153 19 22 70 22 94 0z m165 2 c7 -21 0 -27 -39 -30 -34 -3
-53 -25 -21 -25 53 0 82 -63 46 -102 -30 -33 -113 -17 -113 22 0 27 36 26 43
0 7 -28 24 -25 31 5 8 33 1 45 -30 45 -22 0 -24 4 -24 43 0 24 3 47 7 50 14
14 94 7 100 -8z m-35 -421 c13 -8 4 -192 -10 -206 -5 -5 -49 -6 -108 -1 l-99
8 -3 85 c-5 138 -9 133 109 126 56 -3 106 -9 111 -12z"/>
<path d="M3667 11513 c-4 -3 -7 -35 -7 -70 0 -47 3 -64 13 -61 7 3 13 29 15
71 3 61 -3 78 -21 60z"/>
<path d="M3737 11014 c-8 -8 1 -24 14 -24 5 0 9 7 9 15 0 15 -12 20 -23 9z"/>
<path d="M12328 11721 c-53 -3 -100 -10 -104 -14 -8 -8 186 0 213 8 6 2 13 0
15 -5 2 -4 9 -2 16 6 11 12 8 14 -15 12 -15 -1 -72 -4 -125 -7z"/>
<path d="M12066 11708 c-98 -9 -128 -19 -50 -17 91 3 190 14 164 19 -14 3 -65
2 -114 -2z"/>
<path d="M12808 11713 c6 -2 18 -2 25 0 6 3 1 5 -13 5 -14 0 -19 -2 -12 -5z"/>
<path d="M12668 11703 c12 -2 30 -2 40 0 9 3 -1 5 -23 4 -22 0 -30 -2 -17 -4z"/>
<path d="M11838 11693 c23 -2 61 -2 85 0 23 2 4 4 -43 4 -47 0 -66 -2 -42 -4z"/>
<path d="M13726 11683 c-10 -10 -16 -12 -12 -5 10 16 -240 10 -257 -7 -15 -15
-30 -14 -24 2 6 16 -198 7 -230 -11 -46 -25 -24 -32 90 -27 349 14 407 9 361
-32 -16 -15 -41 -18 -144 -20 l-125 -3 -33 -35 c-32 -35 -58 -50 -30 -17 38
44 37 45 -68 39 -116 -6 -145 -12 -156 -29 -7 -12 -12 -4 -9 14 0 4 -12 5 -27
3 -51 -9 -257 -25 -320 -25 -55 0 -65 -3 -69 -19 -3 -13 -12 -18 -24 -16 -16
3 -17 1 -9 -16 10 -18 12 -18 36 -3 13 9 27 14 31 10 3 -3 4 -7 2 -9 -50 -34
-87 -57 -92 -57 -4 0 -7 11 -7 25 0 14 5 25 12 25 6 0 3 6 -8 14 -17 13 -18
15 -2 21 9 4 21 4 27 1 5 -4 12 -2 16 4 8 13 -295 2 -309 -11 -5 -4 30 -6 78
-4 82 3 87 3 74 -13 -15 -17 -13 -52 2 -52 5 0 10 10 12 22 2 12 9 23 17 26 8
3 11 0 7 -7 -4 -7 -2 -9 7 -5 8 3 17 14 20 25 3 10 10 19 17 19 6 0 9 -4 6 -9
-3 -5 2 -12 12 -16 15 -6 14 -8 -8 -17 -22 -9 -23 -11 -7 -17 17 -6 16 -8 -5
-18 -13 -6 -31 -14 -40 -17 -34 -10 -18 -26 27 -26 25 0 45 -4 45 -9 0 -5 14
-2 31 6 29 14 32 14 41 -1 11 -20 38 -21 38 -1 0 8 7 15 15 15 8 0 15 -9 15
-19 0 -34 10 -49 31 -44 10 3 19 0 19 -6 0 -15 -43 -14 -58 1 -9 9 -12 9 -12
-1 0 -9 -14 -12 -45 -10 -24 2 -47 0 -51 -4 -8 -8 -6 -8 93 -8 40 0 77 2 82 5
5 4 12 0 14 -6 3 -8 6 -6 6 5 1 9 8 17 17 17 8 0 12 -4 9 -10 -4 -6 8 -10 30
-10 23 0 34 4 30 11 -4 6 -13 8 -21 5 -8 -3 -15 -2 -15 2 -8 52 -7 63 5 53 8
-6 21 -9 30 -5 11 4 16 1 16 -10 0 -10 -5 -13 -17 -9 -16 6 -16 5 -4 -10 18
-23 31 -21 31 3 0 11 7 20 16 20 10 0 13 6 10 18 -4 13 -1 18 13 18 17 0 17
-2 4 -22 -10 -15 -11 -24 -3 -29 6 -3 8 -10 5 -15 -3 -4 2 -14 11 -21 13 -10
17 -10 25 2 6 10 9 10 9 2 0 -10 26 -13 95 -13 92 0 101 -3 96 -32 0 -5 3 -8
9 -8 6 0 10 5 10 11 0 5 5 7 11 3 8 -4 7 -9 -2 -15 -11 -6 -11 -11 -1 -21 9
-9 12 -9 12 4 0 17 26 32 40 23 5 -3 7 4 5 15 -2 12 1 20 9 20 10 0 13 -13 12
-39 -1 -45 -10 -58 -28 -43 -7 5 -25 9 -40 7 -19 -2 -28 1 -28 11 0 8 -4 14
-10 14 -5 0 -7 -7 -4 -15 5 -13 -8 -15 -84 -15 -50 0 -98 -3 -107 -6 -11 -5
-18 0 -22 17 -6 21 -7 22 -13 4 -5 -15 -16 -20 -43 -20 -21 0 -37 4 -37 9 0 6
-5 5 -12 -2 -7 -7 -20 -12 -31 -12 -14 0 -17 5 -12 20 4 11 3 20 -2 19 -27 -5
-45 2 -40 15 4 10 1 13 -9 9 -22 -8 -17 -22 11 -29 34 -9 27 -26 -13 -30 -27
-3 -32 -1 -33 19 l0 22 -9 -22 c-8 -19 -17 -23 -56 -23 -26 0 -45 -2 -43 -4 6
-6 167 -11 173 -6 2 3 88 4 190 2 l186 -3 0 -34 c0 -43 -14 -52 -34 -23 l-16
22 0 -22 c0 -26 -17 -30 -23 -4 -4 16 -5 16 -6 -1 -1 -15 -4 -16 -22 -6 -16 8
-23 8 -29 -1 -5 -7 -50 -11 -146 -10 -213 2 -247 1 -279 -9 l-30 -9 39 -1 c30
-1 37 -4 32 -17 -3 -8 -2 -12 4 -9 6 3 10 13 10 21 0 9 11 14 31 14 16 0 28
-4 24 -9 -3 -5 0 -13 6 -17 8 -4 9 -3 5 5 -9 14 18 25 40 17 13 -5 14 -9 3
-22 -10 -12 -10 -15 2 -12 10 2 13 -5 12 -24 -2 -27 0 -28 42 -28 35 0 43 3
39 15 -7 18 -21 19 -27 3 -4 -10 -6 -9 -6 1 -1 11 -4 11 -17 0 -14 -11 -16
-10 -13 6 2 11 0 26 -5 33 -4 7 -5 16 -1 20 4 4 101 8 216 10 182 2 208 0 203
-13 -9 -23 0 -18 24 15 22 29 22 29 3 40 -15 8 -24 6 -36 -7 -14 -14 -18 -14
-26 -2 -12 19 -7 51 9 57 6 2 12 -5 12 -15 1 -17 1 -17 14 0 15 19 41 24 30 5
-4 -7 -3 -10 1 -5 5 4 17 -1 28 -10 19 -17 19 -17 13 5 -7 21 9 33 16 12 2 -6
9 -1 16 10 11 18 10 20 -9 20 -11 0 -17 5 -14 10 3 6 2 10 -3 10 -5 0 -7 14
-4 30 5 36 12 34 15 -6 3 -34 27 -45 28 -12 0 21 1 21 8 4 7 -18 11 -16 50 20
24 21 39 40 33 42 -5 1 -8 12 -5 23 4 13 9 16 17 11 7 -6 38 18 91 72 43 44
70 75 60 67 -11 -8 0 4 25 27 40 37 43 43 29 54 -9 7 -15 24 -14 38 1 22 6 25
34 22 18 -2 39 2 48 10 12 9 15 9 9 1 -4 -8 -2 -11 6 -8 20 8 39 41 25 43 -7
0 -21 3 -32 7 -12 4 -27 -1 -39 -12z m-646 -163 c0 -5 -5 -10 -11 -10 -5 0 -7
5 -4 10 3 6 8 10 11 10 2 0 4 -4 4 -10z m-267 -38 c-12 -15 -26 -26 -32 -25
-6 2 -8 -3 -5 -11 3 -8 1 -17 -5 -21 -6 -3 -11 0 -11 7 0 8 -3 9 -8 3 -10 -14
-62 -18 -62 -5 0 6 8 13 18 16 9 3 29 12 44 20 20 11 27 11 30 2 3 -7 13 2 23
20 10 17 21 29 24 27 2 -3 -5 -18 -16 -33z m143 21 c-1 -11 8 -19 26 -23 l26
-5 -39 -24 c-21 -14 -40 -32 -42 -40 -3 -9 -5 -1 -6 17 0 18 -7 35 -16 38 -12
5 -11 9 3 24 9 9 24 20 32 23 8 3 16 6 16 6 1 1 1 -7 0 -16z m59 -3 c-27 -12
-43 -12 -25 0 8 5 22 9 30 9 10 0 8 -3 -5 -9z m286 -18 c-5 -9 -19 -26 -32
-37 -19 -16 -18 -13 5 18 30 39 43 49 27 19z m-250 -10 c-5 -9 -20 -26 -33
-37 l-23 -20 18 21 c10 12 17 25 16 30 -3 18 1 24 16 24 12 0 13 -4 6 -18z
m436 -74 c-3 -8 -6 -5 -6 6 -1 11 2 17 5 13 3 -3 4 -12 1 -19z m-272 -21 c6 4
2 -2 -8 -13 -14 -17 -15 -23 -5 -26 7 -3 0 -7 -15 -10 -28 -5 -77 22 -77 43 0
13 27 11 36 -3 5 -7 2 -9 -7 -4 -8 4 -5 0 6 -9 19 -15 20 -15 23 7 6 47 13 55
26 30 7 -12 16 -19 21 -15z m-154 -7 c5 0 9 -5 9 -12 0 -9 -3 -9 -12 0 -13 13
-32 16 -24 4 2 -4 -4 -9 -15 -9 -25 -2 -24 5 4 29 19 17 22 18 25 4 2 -9 8
-16 13 -16z m269 9 c0 -11 5 -17 10 -14 6 3 10 4 10 1 0 -15 -20 -13 -39 3
-16 14 -18 21 -9 24 23 10 28 7 28 -14z m124 6 c3 -8 1 -15 -3 -15 -5 0 -11 7
-15 15 -3 8 -1 15 3 15 5 0 11 -7 15 -15z m-604 -13 c0 -10 -22 -42 -29 -42
-5 0 -8 11 -8 24 0 18 5 24 18 23 11 -1 19 -3 19 -5z m254 -8 c11 -27 7 -37
-9 -24 -16 14 -20 40 -6 40 5 0 12 -7 15 -16z m176 1 c14 -8 19 -14 12 -15 -7
0 -20 -7 -29 -15 -14 -14 -17 -14 -28 2 -9 13 -10 22 -3 30 13 16 17 16 48 -2z
m90 -37 c0 -11 -12 -10 -30 2 -12 7 -10 9 8 7 12 0 22 -5 22 -9z m-96 -27 c11
-4 15 -10 10 -13 -5 -4 -18 0 -29 8 -20 15 -12 17 19 5z m116 5 c0 -3 -4 -8
-10 -11 -5 -3 -10 -1 -10 4 0 6 5 11 10 11 6 0 10 -2 10 -4z m40 -21 c-7 -8
-17 -15 -23 -15 -6 0 -2 7 9 15 25 19 30 19 14 0z m-150 -141 c0 -8 -5 -12
-10 -9 -6 4 -8 11 -5 16 9 14 15 11 15 -7z"/>
<path d="M12914 11478 c-4 -7 -3 -8 4 -4 7 4 12 1 12 -8 0 -20 16 -21 23 -2
10 25 -25 38 -39 14z"/>
<path d="M11643 11683 c9 -2 25 -2 35 0 9 3 1 5 -18 5 -19 0 -27 -2 -17 -5z"/>
<path d="M11713 11683 c9 -2 25 -2 35 0 9 3 1 5 -18 5 -19 0 -27 -2 -17 -5z"/>
<path d="M5662 11650 c0 -19 2 -27 5 -17 2 9 2 25 0 35 -3 9 -5 1 -5 -18z"/>
<path d="M11398 11673 c7 -3 16 -2 19 1 4 3 -2 6 -13 5 -11 0 -14 -3 -6 -6z"/>
<path d="M11473 11673 c26 -2 67 -2 90 0 23 2 2 3 -48 3 -49 0 -68 -1 -42 -3z"/>
<path d="M11203 11663 c9 -2 23 -2 30 0 6 3 -1 5 -18 5 -16 0 -22 -2 -12 -5z"/>
<path d="M11263 11663 c9 -2 23 -2 30 0 6 3 -1 5 -18 5 -16 0 -22 -2 -12 -5z"/>
<path d="M12944 11654 c-12 -7 -26 -8 -31 -4 -4 4 -37 3 -73 -2 -36 -5 -90
-13 -120 -17 -63 -9 305 -2 394 8 33 3 61 11 63 18 6 16 -201 13 -233 -3z"/>
<path d="M12068 11633 c6 -2 18 -2 25 0 6 3 1 5 -13 5 -14 0 -19 -2 -12 -5z"/>
<path d="M5749 11611 c6 -10 23 -26 38 -36 26 -16 25 -15 -6 19 -39 40 -46 44
-32 17z"/>
<path d="M12638 11623 c7 -3 16 -2 19 1 4 3 -2 6 -13 5 -11 0 -14 -3 -6 -6z"/>
<path d="M12543 11613 c15 -2 39 -2 55 0 15 2 2 4 -28 4 -30 0 -43 -2 -27 -4z"/>
<path d="M12303 11603 c15 -2 39 -2 55 0 15 2 2 4 -28 4 -30 0 -43 -2 -27 -4z"/>
<path d="M12063 11593 c9 -2 25 -2 35 0 9 3 1 5 -18 5 -19 0 -27 -2 -17 -5z"/>
<path d="M11418 11573 c7 -3 16 -2 19 1 4 3 -2 6 -13 5 -11 0 -14 -3 -6 -6z"/>
<path d="M11608 11573 c6 -2 18 -2 25 0 6 3 1 5 -13 5 -14 0 -19 -2 -12 -5z"/>
<path d="M11678 11573 c17 -2 47 -2 65 0 17 2 3 4 -33 4 -36 0 -50 -2 -32 -4z"/>
<path d="M11968 11543 c7 -3 16 -2 19 1 4 3 -2 6 -13 5 -11 0 -14 -3 -6 -6z"/>
<path d="M12107 11498 c-7 -4 38 -8 100 -8 61 0 114 4 117 8 6 10 -201 10
-217 0z"/>
<path d="M11865 11480 c3 -5 8 -10 11 -10 2 0 4 5 4 10 0 6 -5 10 -11 10 -5 0
-7 -4 -4 -10z"/>
<path d="M11892 11484 c8 -7 159 -7 166 1 3 3 -34 5 -83 5 -49 0 -86 -3 -83
-6z"/>
<path d="M12430 11480 c0 -5 7 -7 15 -4 8 4 15 8 15 10 0 2 -7 4 -15 4 -8 0
-15 -4 -15 -10z"/>
<path d="M11708 11473 c18 -2 45 -2 60 0 15 2 0 4 -33 4 -33 0 -45 -2 -27 -4z"/>
<path d="M11813 11473 c9 -2 23 -2 30 0 6 3 -1 5 -18 5 -16 0 -22 -2 -12 -5z"/>
<path d="M11358 11463 c12 -2 32 -2 45 0 12 2 2 4 -23 4 -25 0 -35 -2 -22 -4z"/>
<path d="M12120 11459 c-13 -9 -13 -10 1 -6 9 3 22 0 28 -6 8 -8 14 -8 23 1 8
8 9 12 1 12 -6 0 -17 2 -25 5 -7 3 -20 0 -28 -6z"/>
<path d="M12214 11449 c0 -10 4 -19 8 -19 4 0 8 6 8 14 0 8 -4 17 -8 20 -4 2
-8 -4 -8 -15z"/>
<path d="M11193 11453 c9 -2 25 -2 35 0 9 3 1 5 -18 5 -19 0 -27 -2 -17 -5z"/>
<path d="M13686 11308 c-8 -206 -26 -1903 -24 -2298 1 -264 3 -225 9 240 17
1205 28 2204 25 2208 -2 2 -7 -66 -10 -150z"/>
<path d="M10868 11443 c12 -2 30 -2 40 0 9 3 -1 5 -23 4 -22 0 -30 -2 -17 -4z"/>
<path d="M11013 11443 c9 -2 23 -2 30 0 6 3 -1 5 -18 5 -16 0 -22 -2 -12 -5z"/>
<path d="M5928 11415 c12 -25 50 -60 57 -53 3 2 -12 20 -31 39 -23 21 -33 26
-26 14z"/>
<path d="M12076 11414 c-3 -8 -14 -14 -25 -14 -11 0 -21 -9 -24 -21 -3 -12 -3
-18 0 -15 3 3 14 1 24 -5 13 -6 19 -6 19 1 0 5 -6 10 -12 10 -9 0 -8 3 2 10 8
5 53 7 100 6 47 -2 91 1 98 7 8 6 12 6 12 -2 0 -7 5 -9 11 -5 6 3 15 0 20 -7
6 -10 11 -11 17 -3 4 7 39 11 88 10 83 -1 114 10 91 33 -14 14 -97 15 -97 1 0
-13 -67 -13 -72 0 -2 6 -14 4 -30 -5 -16 -7 -28 -10 -28 -6 0 5 -20 4 -45 -2
-32 -7 -52 -7 -68 1 -37 18 -75 20 -81 6z"/>
<path d="M11946 11413 c-4 -4 -36 -6 -70 -5 -50 3 -64 0 -69 -12 -5 -14 3 -15
70 -9 60 5 75 4 68 -6 -6 -10 -2 -11 15 -6 12 4 29 8 36 9 24 4 28 16 5 16
-12 0 -19 4 -16 10 7 11 -28 14 -39 3z"/>
<path d="M11457 11396 c-7 -7 -29 -20 -49 -29 -37 -18 -55 -46 -20 -32 30 12
96 33 125 40 16 3 27 11 24 18 -5 15 -65 18 -80 3z"/>
<path d="M11704 11400 c-33 -13 -43 -35 -13 -27 13 4 42 7 64 8 22 1 32 3 22
6 -9 2 -15 9 -12 14 4 5 1 9 -4 9 -6 0 -11 -5 -11 -11 0 -8 -4 -8 -12 -1 -8 5
-22 6 -34 2z"/>
<path d="M11555 11389 c-4 -6 -2 -16 5 -22 10 -9 11 -9 6 0 -3 6 -1 13 6 15 9
3 9 6 1 11 -7 4 -15 2 -18 -4z"/>
<path d="M11625 11390 c-4 -7 -1 -16 6 -21 17 -10 26 8 11 23 -6 6 -12 6 -17
-2z"/>
<path d="M10600 11375 c-11 -13 -6 -15 31 -14 24 0 37 3 29 6 -8 3 -22 9 -31
14 -11 6 -21 4 -29 -6z"/>
<path d="M10734 11375 c-18 -14 -18 -14 6 -8 14 3 35 6 47 7 11 0 19 4 16 9
-7 12 -48 8 -69 -8z"/>
<path d="M12656 11373 c-6 -14 -5 -15 5 -6 7 7 10 15 7 18 -3 3 -9 -2 -12 -12z"/>
<path d="M10260 11369 c0 -5 9 -9 20 -9 11 0 20 2 20 4 0 2 -9 6 -20 9 -11 3
-20 1 -20 -4z"/>
<path d="M10404 11369 c-6 -10 26 -20 37 -13 6 3 16 1 23 -5 10 -9 15 -8 20 4
3 8 1 16 -4 16 -33 4 -72 3 -76 -2z"/>
<path d="M10844 11372 c9 -8 126 -9 126 0 0 4 -30 7 -66 7 -36 -1 -63 -3 -60
-7z"/>
<path d="M9860 11359 c0 -5 9 -9 20 -9 11 0 20 2 20 4 0 2 -9 6 -20 9 -11 3
-20 1 -20 -4z"/>
<path d="M9948 11363 c6 -2 18 -2 25 0 6 3 1 5 -13 5 -14 0 -19 -2 -12 -5z"/>
<path d="M10020 11359 c0 -5 5 -7 10 -4 6 3 10 8 10 11 0 2 -4 4 -10 4 -5 0
-10 -5 -10 -11z"/>
<path d="M10108 11358 c9 -9 15 -9 24 0 9 9 7 12 -12 12 -19 0 -21 -3 -12 -12z"/>
<path d="M10155 11360 c-3 -5 -1 -10 4 -10 6 0 11 5 11 10 0 6 -2 10 -4 10 -3
0 -8 -4 -11 -10z"/>
<path d="M11096 11354 c-3 -8 -10 -12 -16 -9 -5 3 -10 1 -10 -4 0 -6 14 -10
32 -9 26 3 33 -1 39 -22 7 -25 7 -25 8 -2 1 13 6 32 11 43 10 17 7 19 -24 19
-21 0 -36 -6 -40 -16z"/>
<path d="M9150 11356 c0 -2 7 -6 15 -10 8 -3 15 -1 15 4 0 6 -7 10 -15 10 -8
0 -15 -2 -15 -4z"/>
<path d="M9758 11353 c7 -3 16 -2 19 1 4 3 -2 6 -13 5 -11 0 -14 -3 -6 -6z"/>
<path d="M10068 11353 c7 -3 16 -2 19 1 4 3 -2 6 -13 5 -11 0 -14 -3 -6 -6z"/>
<path d="M10340 11356 c0 -2 7 -6 15 -10 8 -3 15 -1 15 4 0 6 -7 10 -15 10 -8
0 -15 -2 -15 -4z"/>
<path d="M10523 11333 c0 -21 1 -23 9 -10 5 9 16 14 26 11 14 -5 14 -3 -2 10
-27 22 -33 20 -33 -11z"/>
<path d="M11245 11350 c-3 -5 3 -10 15 -10 12 0 18 5 15 10 -3 6 -10 10 -15
10 -5 0 -12 -4 -15 -10z"/>
<path d="M12283 11345 c0 -8 4 -12 9 -9 5 3 6 10 3 15 -9 13 -12 11 -12 -6z"/>
<path d="M12600 11339 c0 -15 -5 -19 -15 -15 -8 3 -15 1 -15 -4 0 -6 9 -10 20
-10 11 0 20 4 20 9 0 5 3 16 6 25 3 9 1 16 -5 16 -6 0 -11 -9 -11 -21z"/>
<path d="M8961 11341 c-8 -5 13 -7 55 -4 93 6 103 11 24 12 -36 0 -71 -3 -79
-8z"/>
<path d="M9115 11340 c-3 -5 -1 -10 4 -10 6 0 11 5 11 10 0 6 -2 10 -4 10 -3
0 -8 -4 -11 -10z"/>
<path d="M9285 11340 c-18 -8 -18 -9 5 -9 14 0 34 4 45 9 18 8 18 9 -5 9 -14
0 -34 -4 -45 -9z"/>
<path d="M9680 11339 c0 -5 5 -7 10 -4 6 3 10 8 10 11 0 2 -4 4 -10 4 -5 0
-10 -5 -10 -11z"/>
<path d="M9830 11340 c0 -5 5 -10 10 -10 6 0 10 5 10 10 0 6 -4 10 -10 10 -5
0 -10 -4 -10 -10z"/>
<path d="M12245 11340 c3 -5 8 -10 11 -10 2 0 4 5 4 10 0 6 -5 10 -11 10 -5 0
-7 -4 -4 -10z"/>
<path d="M12334 11335 c36 -19 47 -19 22 0 -11 8 -27 15 -35 15 -9 0 -3 -7 13
-15z"/>
<path d="M12380 11339 c0 -5 5 -7 10 -4 6 3 10 8 10 11 0 2 -4 4 -10 4 -5 0
-10 -5 -10 -11z"/>
<path d="M12945 11330 c-18 -20 -17 -20 10 -20 22 0 25 3 16 13 -6 8 -8 17 -4
20 3 4 4 7 1 7 -3 0 -13 -9 -23 -20z"/>
<path d="M8458 11333 c7 -3 16 -2 19 1 4 3 -2 6 -13 5 -11 0 -14 -3 -6 -6z"/>
<path d="M8860 11330 c0 -5 7 -7 15 -4 8 4 15 8 15 10 0 2 -7 4 -15 4 -8 0
-15 -4 -15 -10z"/>
<path d="M10937 11318 c-8 -29 -4 -32 11 -8 6 10 8 21 3 24 -5 3 -11 -4 -14
-16z"/>
<path d="M7858 11313 c6 -2 18 -2 25 0 6 3 1 5 -13 5 -14 0 -19 -2 -12 -5z"/>
<path d="M11069 11300 c-31 -26 -15 -26 18 0 14 11 21 20 15 20 -5 0 -20 -9
-33 -20z"/>
<path d="M12240 11309 c-51 -5 -49 -6 28 -7 82 -2 107 2 55 9 -16 2 -53 1 -83
-2z"/>
<path d="M12370 11310 c-11 -7 -3 -9 27 -8 24 2 43 6 43 11 0 10 -52 8 -70 -3z"/>
<path d="M12468 11313 c7 -3 16 -2 19 1 4 3 -2 6 -13 5 -11 0 -14 -3 -6 -6z"/>
<path d="M7248 11303 c7 -3 16 -2 19 1 4 3 -2 6 -13 5 -11 0 -14 -3 -6 -6z"/>
<path d="M10392 11296 c-33 -19 -36 -24 -8 -19 14 3 31 11 37 19 14 17 2 17
-29 0z"/>
<path d="M12143 11303 c9 -2 23 -2 30 0 6 3 -1 5 -18 5 -16 0 -22 -2 -12 -5z"/>
<path d="M11798 11293 c7 -3 16 -2 19 1 4 3 -2 6 -13 5 -11 0 -14 -3 -6 -6z"/>
<path d="M11928 11293 c6 -2 18 -2 25 0 6 3 1 5 -13 5 -14 0 -19 -2 -12 -5z"/>
<path d="M12870 11288 c0 -10 5 -18 11 -18 6 0 9 -7 5 -15 -9 -23 0 -18 19 13
10 15 12 22 5 15 -11 -10 -16 -9 -26 5 -13 16 -13 16 -14 0z"/>
<path d="M13010 11291 c0 -6 4 -13 10 -16 6 -3 7 1 4 9 -7 18 -14 21 -14 7z"/>
<path d="M6608 11283 c7 -3 16 -2 19 1 4 3 -2 6 -13 5 -11 0 -14 -3 -6 -6z"/>
<path d="M6948 11283 c6 -2 18 -2 25 0 6 3 1 5 -13 5 -14 0 -19 -2 -12 -5z"/>
<path d="M10895 11280 c-3 -5 -2 -10 4 -10 5 0 13 5 16 10 3 6 2 10 -4 10 -5
0 -13 -4 -16 -10z"/>
<path d="M10500 11271 c0 -6 4 -13 10 -16 6 -3 7 1 4 9 -7 18 -14 21 -14 7z"/>
<path d="M10767 11263 c-4 -3 -7 -11 -7 -17 0 -6 5 -5 12 2 6 6 9 14 7 17 -3
3 -9 2 -12 -2z"/>
<path d="M10906 11254 c-9 -9 -14 -19 -11 -22 3 -3 13 2 22 11 9 9 14 19 11
22 -3 3 -13 -2 -22 -11z"/>
<path d="M10990 11259 c0 -5 5 -7 10 -4 6 3 10 8 10 11 0 2 -4 4 -10 4 -5 0
-10 -5 -10 -11z"/>
<path d="M6020 11245 c0 -9 6 -12 15 -9 8 4 12 10 9 15 -8 14 -24 10 -24 -6z"/>
<path d="M6088 11234 c24 -35 50 -59 57 -52 3 2 -14 22 -37 44 -37 35 -39 36
-20 8z"/>
<path d="M10455 11250 c-19 -8 -19 -9 3 -9 12 -1 22 4 22 9 0 6 -1 10 -2 9 -2
0 -12 -4 -23 -9z"/>
<path d="M13301 11244 c0 -11 3 -14 6 -6 3 7 2 16 -1 19 -3 4 -6 -2 -5 -13z"/>
<path d="M6170 11241 c0 -13 55 -24 80 -16 11 4 18 11 15 16 -8 12 -95 12 -95
0z"/>
<path d="M10860 11230 c0 -5 5 -10 11 -10 5 0 7 5 4 10 -3 6 -8 10 -11 10 -2
0 -4 -4 -4 -10z"/>
<path d="M10810 11220 c0 -5 5 -10 11 -10 5 0 7 5 4 10 -3 6 -8 10 -11 10 -2
0 -4 -4 -4 -10z"/>
<path d="M12300 11223 c0 -9 -16 -13 -44 -13 -25 0 -47 -4 -50 -8 -2 -4 8 -7
22 -6 15 1 52 3 82 5 30 1 44 4 30 6 -14 3 -28 10 -32 17 -6 8 -8 8 -8 -1z"/>
<path d="M12565 11220 l-40 -7 43 -2 c23 0 42 4 42 9 0 6 -1 9 -2 9 -2 -1 -21
-5 -43 -9z"/>
<path d="M12390 11210 c0 -5 4 -10 9 -10 6 0 13 5 16 10 3 6 -1 10 -9 10 -9 0
-16 -4 -16 -10z"/>
<path d="M12628 11213 c7 -3 16 -2 19 1 4 3 -2 6 -13 5 -11 0 -14 -3 -6 -6z"/>
<path d="M13054 11189 c-4 -7 -3 -9 4 -5 5 3 13 0 15 -6 4 -9 6 -10 6 -1 1 17
-16 25 -25 12z"/>
<path d="M10815 11180 c-3 -5 1 -10 9 -10 9 0 16 5 16 10 0 6 -4 10 -9 10 -6
0 -13 -4 -16 -10z"/>
<path d="M12791 11172 c-17 -31 -13 -40 5 -14 9 13 14 26 11 29 -3 2 -10 -4
-16 -15z"/>
<path d="M12822 11170 c-7 -11 -8 -20 -3 -20 9 0 24 30 18 36 -1 2 -8 -6 -15
-16z"/>
<path d="M12665 11150 c3 -5 8 -10 11 -10 2 0 4 5 4 10 0 6 -5 10 -11 10 -5 0
-7 -4 -4 -10z"/>
<path d="M12373 11113 c9 -2 23 -2 30 0 6 3 -1 5 -18 5 -16 0 -22 -2 -12 -5z"/>
<path d="M12428 11113 c6 -2 18 -2 25 0 6 3 1 5 -13 5 -14 0 -19 -2 -12 -5z"/>
<path d="M12507 11113 c18 -2 50 -2 70 0 21 2 7 4 -32 4 -38 0 -55 -2 -38 -4z"/>
<path d="M12088 11103 c6 -2 18 -2 25 0 6 3 1 5 -13 5 -14 0 -19 -2 -12 -5z"/>
<path d="M12138 11103 c6 -2 18 -2 25 0 6 3 1 5 -13 5 -14 0 -19 -2 -12 -5z"/>
<path d="M12253 11103 c9 -2 23 -2 30 0 6 3 -1 5 -18 5 -16 0 -22 -2 -12 -5z"/>
<path d="M13030 11100 c0 -5 5 -10 10 -10 6 0 10 5 10 10 0 6 -4 10 -10 10 -5
0 -10 -4 -10 -10z"/>
<path d="M13189 11093 c-12 -16 -12 -17 2 -6 9 7 20 9 24 5 5 -4 5 -1 1 6 -9
16 -11 15 -27 -5z"/>
<path d="M11638 11093 c7 -3 16 -2 19 1 4 3 -2 6 -13 5 -11 0 -14 -3 -6 -6z"/>
<path d="M12737 11094 c-4 -4 -7 -14 -7 -23 0 -11 3 -12 11 -4 6 6 10 16 7 23
-2 6 -7 8 -11 4z"/>
<path d="M12975 11089 c-4 -6 -5 -12 -2 -15 2 -3 7 2 10 11 7 17 1 20 -8 4z"/>
<path d="M13155 11091 c-3 -5 -1 -12 5 -16 5 -3 10 1 10 9 0 18 -6 21 -15 7z"/>
<path d="M6212 11060 c0 -14 2 -19 5 -12 2 6 2 18 0 25 -3 6 -5 1 -5 -13z"/>
<path d="M12790 11056 c0 -16 6 -26 15 -26 8 0 15 5 15 10 0 6 -5 10 -11 10
-5 0 -8 4 -4 9 3 5 1 12 -5 16 -6 4 -10 -5 -10 -19z"/>
<path d="M13121 11068 c-1 -16 -12 -18 -90 -18 -50 0 -93 -4 -96 -10 -4 -6 27
-10 87 -10 91 0 93 -1 105 -26 7 -15 10 -31 7 -35 -7 -11 -1 -11 30 1 14 5 26
17 26 25 0 9 7 26 15 39 15 23 15 23 -29 19 -36 -3 -45 -1 -49 14 -4 16 -5 17
-6 1z"/>
<path d="M12760 11056 c0 -9 -9 -13 -25 -11 -14 1 -25 -2 -25 -6 0 -5 15 -9
34 -9 29 0 33 3 29 20 -6 23 -13 26 -13 6z"/>
<path d="M6265 11040 c10 -11 20 -20 23 -20 3 0 -3 9 -13 20 -10 11 -20 20
-23 20 -3 0 3 -9 13 -20z"/>
<path d="M12637 11046 c-5 -13 0 -16 26 -15 21 1 25 3 12 6 -11 3 -23 10 -26
15 -3 5 -9 3 -12 -6z"/>
<path d="M12475 11029 c-43 -5 -39 -6 33 -7 45 -1 82 0 82 2 0 8 -67 11 -115
5z"/>
<path d="M6446 11006 c4 -11 19 -16 50 -16 24 0 44 5 44 10 0 6 -15 10 -34 10
-19 0 -42 3 -50 6 -12 5 -15 2 -10 -10z"/>
<path d="M6747 10874 c-6 -32 2 -64 15 -64 10 0 6 76 -4 86 -3 3 -8 -7 -11
-22z"/>
<path d="M6410 10881 c0 -6 4 -13 10 -16 6 -3 7 1 4 9 -7 18 -14 21 -14 7z"/>
<path d="M6801 10788 c-1 -27 4 -48 9 -48 12 0 12 47 0 75 -6 15 -9 8 -9 -27z"/>
<path d="M12622 10819 c-79 -4 -146 -10 -150 -13 -3 -3 4 -6 16 -6 11 0 23 -6
25 -12 4 -10 6 -10 6 0 1 8 17 12 47 12 27 0 43 -4 39 -10 -3 -5 -16 -10 -28
-10 -17 0 -19 -2 -7 -10 20 -12 9 -21 -32 -23 -30 -2 -34 -4 -24 -19 7 -13 14
-14 23 -6 7 6 13 7 13 3 0 -4 7 -2 15 5 8 7 15 10 15 7 0 -3 16 -1 34 3 19 4
38 5 41 2 6 -6 101 -4 152 4 23 4 34 0 42 -13 10 -17 10 -17 11 0 0 9 4 17 9
17 5 0 7 -10 4 -22 l-5 -23 20 23 c11 12 29 22 40 22 19 0 33 19 31 43 0 7 -4
3 -9 -9 -8 -20 -34 -25 -57 -11 -14 9 -10 40 6 45 7 2 11 -3 9 -13 -2 -10 3
-20 10 -22 7 -3 10 1 6 10 -7 19 22 30 38 14 10 -10 16 -9 30 5 17 17 12 18
-105 16 -67 -1 -187 -5 -265 -9z m128 -21 c0 -10 3 -10 9 1 5 7 14 12 20 10 8
-3 5 -13 -10 -29 -14 -17 -23 -21 -26 -12 -3 6 -11 12 -19 12 -8 0 -14 5 -14
10 0 16 -17 12 -24 -6 -3 -8 -2 -12 4 -9 5 3 18 1 27 -4 21 -12 21 -12 -29
-16 -36 -4 -38 -2 -38 24 0 26 2 28 50 30 35 1 50 -3 50 -11z m91 -10 c1 -17
2 -19 6 -5 5 21 23 23 23 3 0 -21 -20 -31 -55 -27 -39 4 -42 7 -20 31 24 26
45 25 46 -2z m-220 -31 c-13 -13 -26 -3 -16 12 3 6 11 8 17 5 6 -4 6 -10 -1
-17z"/>
<path d="M6565 10810 c3 -5 24 -10 46 -10 21 0 39 5 39 10 0 6 -21 10 -46 10
-27 0 -43 -4 -39 -10z"/>
<path d="M12330 10800 c0 -5 5 -10 11 -10 5 0 7 5 4 10 -3 6 -8 10 -11 10 -2
0 -4 -4 -4 -10z"/>
<path d="M12380 10800 c0 -5 7 -7 15 -4 8 4 15 8 15 10 0 2 -7 4 -15 4 -8 0
-15 -4 -15 -10z"/>
<path d="M12038 10783 c7 -3 16 -2 19 1 4 3 -2 6 -13 5 -11 0 -14 -3 -6 -6z"/>
<path d="M12368 10733 c12 -2 32 -2 45 0 12 2 2 4 -23 4 -25 0 -35 -2 -22 -4z"/>
<path d="M12135 10720 c3 -5 8 -10 11 -10 2 0 4 5 4 10 0 6 -5 10 -11 10 -5 0
-7 -4 -4 -10z"/>
<path d="M12195 10720 c3 -5 8 -10 11 -10 2 0 4 5 4 10 0 6 -5 10 -11 10 -5 0
-7 -4 -4 -10z"/>
<path d="M12688 10711 c-7 -12 -22 -21 -33 -21 -18 -1 -19 -1 -2 -11 9 -5 17
-18 17 -27 0 -14 2 -15 9 -2 6 8 8 17 6 20 -2 3 15 7 38 9 55 3 61 11 9 11
-40 0 -54 11 -31 26 6 3 16 0 21 -7 8 -12 9 -12 6 0 -7 23 -26 24 -40 2z"/>
<path d="M12897 10714 c-4 -4 -28 -9 -54 -11 -50 -5 -85 -23 -45 -23 24 0 30
-15 10 -23 -10 -4 -9 -8 2 -17 13 -9 12 -11 -5 -9 -56 4 -74 -1 -72 -21 1 -13
5 -16 11 -10 12 12 27 13 24 3 -2 -5 0 -9 5 -10 4 -2 7 0 6 3 0 4 10 12 23 18
14 8 22 19 20 30 -2 13 1 17 11 13 9 -3 28 9 48 29 18 19 31 34 28 34 -3 0 -9
-3 -12 -6z"/>
<path d="M12603 10696 c-4 -8 -26 -16 -48 -19 l-40 -4 47 -1 c40 -2 47 -5 42
-19 -5 -15 -3 -15 10 1 11 14 13 22 5 27 -6 4 -8 12 -5 18 4 6 5 11 2 11 -3 0
-9 -6 -13 -14z"/>
<path d="M12314 10669 c-3 -5 9 -9 25 -9 17 0 31 2 31 4 0 8 -51 13 -56 5z"/>
<path d="M12410 10670 c0 -5 5 -10 10 -10 6 0 10 5 10 10 0 6 -4 10 -10 10 -5
0 -10 -4 -10 -10z"/>
<path d="M12455 10670 c-4 -7 3 -10 19 -8 35 5 45 18 13 18 -14 0 -29 -5 -32
-10z"/>
<path d="M6630 10632 c0 -12 19 -26 26 -19 2 2 -2 10 -11 17 -9 8 -15 8 -15 2z"/>
<path d="M12613 10626 c-13 -6 -23 -13 -23 -16 0 -3 29 -5 65 -5 36 0 65 3 65
7 0 11 -24 15 -59 10 -24 -4 -32 -2 -27 6 4 7 6 11 4 11 -2 -1 -13 -6 -25 -13z"/>
<path d="M12410 10611 c-52 -4 -84 -8 -70 -11 40 -8 180 1 180 11 0 5 -3 8 -7
7 -5 -1 -51 -4 -103 -7z"/>
<path d="M12530 10608 c0 -11 22 -10 40 2 11 8 9 9 -12 8 -16 -1 -28 -6 -28
-10z"/>
<path d="M12286 10602 c-3 -5 1 -9 9 -9 8 0 15 4 15 9 0 4 -4 8 -9 8 -6 0 -12
-4 -15 -8z"/>
<path d="M12158 10593 c6 -2 18 -2 25 0 6 3 1 5 -13 5 -14 0 -19 -2 -12 -5z"/>
<path d="M12674 10578 c7 -24 -1 -27 -73 -29 -34 -1 -59 -5 -56 -8 3 -3 45 -4
93 -2 l87 3 -24 -23 c-31 -29 -58 -34 -64 -11 -4 16 -5 16 -6 0 0 -10 -7 -18
-13 -19 -7 0 -24 -2 -37 -5 -14 -2 -28 1 -33 8 -6 10 -8 10 -8 1 0 -8 -15 -13
-40 -13 -22 0 -40 4 -40 10 0 5 -12 0 -26 -13 -14 -12 -37 -22 -51 -22 -22 -1
-23 0 -7 12 9 7 21 10 27 6 6 -3 7 -1 3 5 -5 8 -15 8 -32 2 -14 -6 -48 -10
-75 -10 -27 0 -59 -6 -70 -12 -17 -10 -23 -10 -26 0 -6 14 -43 16 -43 2 0 -5
-18 -10 -41 -10 -24 0 -38 4 -34 10 8 13 -18 13 -31 1 -8 -9 -566 -23 -841
-21 -99 0 -112 -2 -116 -17 -4 -17 -5 -17 -6 0 -1 15 -17 17 -180 17 -163 0
-180 -2 -184 -17 -4 -17 -5 -17 -6 0 -1 15 -12 17 -85 17 -72 0 -85 -3 -89
-17 -3 -13 -5 -14 -6 -3 -1 13 -15 15 -83 11 -47 -2 -86 -8 -90 -15 -11 -16
-5 -41 10 -42 6 -1 24 -3 40 -4 20 -2 15 -5 -18 -9 -37 -5 -46 -10 -48 -28 -3
-22 -1 -23 77 -23 66 0 82 3 90 18 10 16 10 16 11 0 0 -15 10 -18 59 -18 84 0
111 12 111 50 0 26 3 30 28 29 26 0 26 -1 5 -9 -15 -6 -23 -18 -23 -34 0 -13
-3 -31 -6 -40 -5 -14 13 -16 165 -16 142 0 171 2 171 14 0 8 5 18 11 22 7 4 9
0 5 -14 -6 -18 -1 -21 41 -26 63 -8 118 5 117 27 -1 9 2 14 7 11 5 -3 16 13
25 36 9 22 19 39 21 36 3 -2 -6 -27 -20 -55 l-24 -51 81 0 81 0 34 61 c18 33
35 58 37 56 2 -2 -9 -28 -26 -58 -16 -30 -30 -56 -30 -59 0 -3 26 -4 58 -3 31
1 68 2 82 3 21 0 32 12 59 61 18 33 35 58 37 56 3 -3 -9 -28 -26 -56 -34 -58
-38 -76 -14 -67 9 3 46 6 83 6 l67 0 29 55 c17 30 33 55 37 55 4 0 -6 -23 -22
-50 -17 -28 -30 -53 -30 -55 0 -10 334 -4 347 7 9 8 13 7 13 -1 0 -9 25 -12
83 -11 160 3 264 -2 232 -10 -29 -7 -29 -8 9 -9 36 -1 44 4 140 106 55 59 118
124 139 145 l38 38 -32 0 c-18 0 -38 8 -46 18 -14 16 -14 16 -9 0z m-136 -115
c-21 -2 -55 -2 -75 0 -21 2 -4 4 37 4 41 0 58 -2 38 -4z m105 0 c-13 -2 -33
-2 -45 0 -13 2 -3 4 22 4 25 0 35 -2 23 -4z m-263 -46 c0 -2 -10 -12 -22 -23
l-23 -19 19 23 c18 21 26 27 26 19z m-1479 -34 c-12 -20 -14 -14 -5 12 4 9 9
14 11 11 3 -2 0 -13 -6 -23z m1093 2 c-9 -14 -18 -25 -21 -25 -5 0 5 18 20 38
17 22 18 13 1 -13z m180 0 c-9 -14 -18 -25 -21 -25 -5 0 5 18 20 38 17 22 18
13 1 -13z m-1098 -22 c-8 -15 -15 -22 -16 -15 0 17 20 55 27 49 2 -3 -2 -18
-11 -34z m-471 7 c-38 -3 -90 -3 -115 0 l-45 4 45 6 c25 3 77 3 115 0 l70 -4
-70 -6z m218 13 c-13 -2 -33 -2 -45 0 -13 2 -3 4 22 4 25 0 35 -2 23 -4z m230
0 c-7 -2 -21 -2 -30 0 -10 3 -4 5 12 5 17 0 24 -2 18 -5z m-174 -67 c-9 -8
-10 -7 -5 7 3 10 7 24 7 30 1 7 3 4 6 -7 3 -10 -1 -23 -8 -30z m1271 30 c0 -2
-8 -10 -17 -17 -16 -13 -17 -12 -4 4 13 16 21 21 21 13z m180 1 c0 -2 -10 -12
-22 -23 l-23 -19 19 23 c18 21 26 27 26 19z m-1502 -34 c-21 -2 -55 -2 -75 0
-21 2 -4 4 37 4 41 0 58 -2 38 -4z"/>
<path d="M7753 10565 c-3 -9 -3 -19 1 -22 7 -7 36 16 36 28 0 15 -30 10 -37
-6z"/>
<path d="M12480 10569 c0 -5 5 -7 10 -4 6 3 10 8 10 11 0 2 -4 4 -10 4 -5 0
-10 -5 -10 -11z"/>
<path d="M12480 10528 c0 -17 2 -18 15 -4 8 8 15 16 15 19 0 2 -7 4 -15 4 -8
0 -15 -9 -15 -19z"/>
<path d="M12215 10530 c-3 -6 1 -7 9 -4 18 7 21 14 7 14 -6 0 -13 -4 -16 -10z"/>
<path d="M12322 10515 c0 -16 2 -22 5 -12 2 9 2 23 0 30 -3 6 -5 -1 -5 -18z"/>
<path d="M12390 10536 c0 -8 61 -12 66 -4 3 4 -11 8 -30 8 -20 0 -36 -2 -36
-4z"/>
<path d="M11836 10473 c-6 -14 -5 -15 5 -6 7 7 10 15 7 18 -3 3 -9 -2 -12 -12z"/>
<path d="M9680 10430 l-245 -6 278 -2 c152 -1 277 2 277 6 0 5 -15 8 -32 8
-18 -1 -143 -3 -278 -6z"/>
<path d="M10000 10430 c0 -12 66 -12 130 -1 39 8 34 9 -42 10 -53 0 -88 -3
-88 -9z"/>
<path d="M6905 10420 c-15 -6 -8 -9 28 -9 30 -1 46 3 42 9 -7 12 -42 12 -70 0z"/>
<path d="M9303 10423 c26 -2 67 -2 90 0 23 2 2 3 -48 3 -49 0 -68 -1 -42 -3z"/>
<path d="M10233 10423 c-49 -4 -53 -6 -53 -29 0 -23 2 -24 80 -24 77 0 81 1
90 26 6 14 10 27 10 30 0 4 -32 3 -127 -3z"/>
<path d="M7518 10413 c-38 -2 -68 -7 -68 -11 0 -9 147 2 157 11 3 4 0 6 -8 5
-8 -1 -44 -3 -81 -5z"/>
<path d="M7643 10413 c15 -2 39 -2 55 0 15 2 2 4 -28 4 -30 0 -43 -2 -27 -4z"/>
<path d="M8394 10412 c3 -6 -37 -8 -105 -7 -98 3 -110 1 -107 -13 3 -14 16
-17 73 -16 39 1 116 2 173 3 93 0 103 2 100 18 -3 14 -16 18 -72 21 -41 2 -66
0 -62 -6z"/>
<path d="M8540 10398 c0 -16 11 -18 94 -18 87 0 94 1 89 19 -4 17 -14 19 -94
17 -77 -1 -89 -3 -89 -18z"/>
<path d="M8734 10409 c-12 -19 10 -27 84 -31 61 -2 72 -1 72 13 0 24 -142 40
-156 18z"/>
<path d="M10063 10413 c-55 -3 -63 -7 -63 -23 0 -18 7 -20 85 -20 84 0 85 0
85 25 0 20 -5 25 -22 23 -13 -1 -51 -3 -85 -5z"/>
<path d="M7249 10392 c8 -15 19 -18 63 -15 80 6 119 13 113 22 -2 5 -24 5 -47
0 -60 -11 -118 -11 -118 1 0 6 -5 10 -10 10 -7 0 -7 -6 -1 -18z"/>
<path d="M7998 10388 c4 -16 17 -18 93 -18 74 0 87 2 83 15 -6 16 -20 18 -120
19 -53 1 -60 -1 -56 -16z"/>
<path d="M8902 10393 c3 -15 16 -18 91 -21 81 -3 88 -1 85 15 -3 15 -16 18
-91 21 -81 3 -88 1 -85 -15z"/>
<path d="M9090 10388 c0 -16 10 -18 86 -18 78 0 86 2 80 18 -4 11 0 9 10 -5
15 -21 25 -23 94 -23 66 0 79 3 83 18 4 16 5 16 6 0 1 -16 12 -18 81 -18 65 0
81 3 89 18 10 16 10 16 11 0 0 -16 11 -18 84 -18 72 0 85 3 89 18 4 16 5 16 6
0 1 -15 11 -18 72 -18 72 0 109 11 109 33 0 9 -104 12 -450 12 -424 0 -450 -1
-450 -17z"/>
<path d="M7683 10391 c-39 -6 -41 -7 -27 -25 8 -11 14 -16 14 -10 0 5 32 8 76
6 68 -3 76 -2 70 13 -3 9 -6 19 -6 21 0 5 -74 3 -127 -5z"/>
<path d="M7822 10389 c8 -25 35 -32 102 -24 96 10 82 29 -23 33 -62 2 -82 0
-79 -9z"/>
<path d="M7559 10386 c-2 -2 -38 -6 -79 -9 -183 -14 -222 -23 -188 -43 7 -4 8
-3 4 4 -5 9 14 12 71 11 57 -1 70 -3 48 -9 l-30 -8 27 -1 c17 -1 32 7 41 20
14 20 16 20 27 2 8 -13 13 -14 16 -5 3 6 17 12 30 12 17 0 23 -4 18 -12 -5 -8
0 -9 17 -5 13 4 39 7 57 7 30 0 32 2 22 20 -7 14 -21 20 -44 20 -18 0 -35 -2
-37 -4z"/>
<path d="M8550 10362 c0 -2 5 -12 10 -23 9 -16 22 -19 95 -19 77 0 85 2 85 19
0 18 -9 20 -95 23 -52 2 -95 2 -95 0z"/>
<path d="M8268 10353 c-47 -3 -58 -7 -58 -21 0 -15 2 -15 10 -2 6 10 10 11 10
3 0 -9 22 -13 74 -13 69 0 74 1 69 20 -4 13 -13 19 -27 18 -11 -1 -47 -3 -78
-5z m60 -20 c-10 -2 -26 -2 -35 0 -10 3 -2 5 17 5 19 0 27 -2 18 -5z"/>
<path d="M8387 10340 c5 -18 13 -20 85 -20 70 0 79 2 76 18 -3 14 -16 17 -85
20 -78 3 -81 2 -76 -18z m60 -6 c-3 -3 -12 -4 -19 -1 -8 3 -5 6 6 6 11 1 17
-2 13 -5z"/>
<path d="M8750 10340 c0 -19 5 -20 78 -18 69 3 78 5 74 21 -4 14 -16 17 -78
17 -68 0 -74 -2 -74 -20z m90 0 c0 -5 -4 -10 -10 -10 -5 0 -10 5 -10 10 0 6 5
10 10 10 6 0 10 -4 10 -10z"/>
<path d="M10058 10353 c-60 -4 -68 -6 -68 -24 0 -18 6 -20 83 -17 76 3 82 5
85 26 3 16 -1 22 -15 20 -10 -1 -48 -3 -85 -5z"/>
<path d="M10177 10353 c-4 -3 -7 -15 -7 -25 0 -17 7 -19 83 -16 76 3 82 5 85
26 3 21 1 22 -76 22 -43 0 -82 -3 -85 -7z"/>
<path d="M7913 10343 c-38 -3 -53 -8 -53 -19 0 -11 17 -14 81 -14 70 0 80 2
75 16 -3 9 -6 18 -6 20 0 2 -10 3 -22 2 -13 -1 -47 -3 -75 -5z m80 -10 c-7 -2
-19 -2 -25 0 -7 3 -2 5 12 5 14 0 19 -2 13 -5z"/>
<path d="M8030 10330 c9 -17 21 -20 70 -20 32 0 61 4 64 9 3 4 -21 8 -54 7
-33 0 -60 3 -60 7 0 5 32 7 70 5 39 -2 70 0 70 5 0 4 -38 7 -85 7 -83 0 -85
-1 -75 -20z"/>
<path d="M8920 10335 c0 -9 10 -15 25 -16 124 -3 138 -1 141 15 2 14 -10 16
-82 16 -68 0 -84 -3 -84 -15z"/>
<path d="M9100 10329 c0 -15 4 -19 16 -15 9 3 47 6 85 6 57 0 67 3 63 15 -5
12 -24 15 -85 15 -74 0 -79 -1 -79 -21z"/>
<path d="M9527 10343 c-66 -3 -78 -6 -73 -19 3 -9 6 -18 6 -20 0 -2 33 -4 73
-3 53 0 67 3 52 10 -17 8 -15 8 8 4 22 -4 27 -2 27 15 0 11 -3 19 -7 18 -5 -1
-43 -4 -86 -5z"/>
<path d="M9683 10343 c-45 -3 -53 -7 -53 -24 0 -17 7 -19 73 -19 72 0 97 10
97 37 0 13 -6 13 -117 6z"/>
<path d="M9812 10328 c3 -22 8 -23 83 -23 75 0 80 1 83 23 3 21 1 22 -83 22
-84 0 -86 -1 -83 -22z"/>
<path d="M7774 10325 c15 -8 40 -14 55 -14 19 1 21 3 7 6 -15 4 -16 7 -5 14 9
6 -3 9 -36 9 l-50 0 29 -15z"/>
<path d="M9280 10330 c0 -6 33 -10 80 -10 47 0 80 4 80 10 0 6 -33 10 -80 10
-47 0 -80 -4 -80 -10z"/>
<path d="M7550 10319 c-35 -5 -25 -6 43 -7 59 -1 86 1 82 8 -7 11 -41 10 -125
-1z"/>
<path d="M7695 10320 c-4 -6 7 -10 25 -10 18 0 29 4 25 10 -3 6 -15 10 -25 10
-10 0 -22 -4 -25 -10z"/>
<path d="M7395 10310 l-60 -7 60 -1 c33 0 69 3 80 8 l20 9 -20 -1 c-11 -1 -47
-4 -80 -8z"/>
<path d="M8360 10290 c0 -5 7 -10 16 -10 8 0 12 5 9 10 -3 6 -10 10 -16 10 -5
0 -9 -4 -9 -10z"/>
<path d="M8496 10291 c-3 -5 12 -8 33 -7 21 0 37 4 34 9 -6 10 -61 9 -67 -2z"/>
<path d="M8580 10290 c0 -7 32 -10 85 -9 47 1 85 5 85 10 0 5 -38 9 -85 9 -52
0 -85 -4 -85 -10z"/>
<path d="M8780 10290 c28 -9 146 -13 138 -4 -4 3 -42 7 -85 9 -50 2 -69 1 -53
-5z"/>
<path d="M10065 10290 l-80 -6 83 -2 c49 -1 82 2 82 8 0 6 -1 9 -2 8 -2 -1
-39 -5 -83 -8z"/>
<path d="M10170 10288 c0 -4 28 -8 62 -8 34 0 59 2 57 4 -8 8 -119 12 -119 4z"/>
<path d="M10350 10293 c0 -10 147 -9 156 0 4 4 -29 7 -74 7 -45 0 -82 -3 -82
-7z"/>
<path d="M10526 10291 c5 -4 45 -5 89 -1 l80 7 -89 1 c-51 1 -86 -2 -80 -7z"/>
<path d="M9013 10283 c48 -2 126 -2 175 0 48 1 8 3 -88 3 -96 0 -136 -2 -87
-3z"/>
<path d="M9553 10283 c15 -2 37 -2 50 0 12 2 0 4 -28 4 -27 0 -38 -2 -22 -4z"/>
<path d="M9668 10283 c23 -2 59 -2 80 0 20 2 1 4 -43 4 -44 0 -61 -2 -37 -4z"/>
<path d="M9853 10283 c26 -2 67 -2 90 0 23 2 2 3 -48 3 -49 0 -68 -1 -42 -3z"/>
<path d="M12300 10270 c0 -5 5 -10 11 -10 5 0 7 5 4 10 -3 6 -8 10 -11 10 -2
0 -4 -4 -4 -10z"/>
<path d="M12430 10251 c0 -5 7 -14 15 -21 16 -14 18 -10 9 14 -6 17 -24 22
-24 7z"/>
<path d="M12345 10210 c-25 -11 1 -11 35 0 20 6 21 8 5 8 -11 0 -29 -3 -40 -8z"/>
<path d="M12325 10180 l-40 -7 40 -1 c22 0 49 3 60 8 l20 9 -20 -1 c-11 -1
-38 -4 -60 -8z"/>
<path d="M7328 10149 c2 -17 8 -27 13 -22 9 9 1 53 -10 53 -4 0 -6 -14 -3 -31z"/>
<path d="M7165 10140 c3 -5 15 -10 26 -10 10 0 19 5 19 10 0 6 -12 10 -26 10
-14 0 -23 -4 -19 -10z"/>
<path d="M7235 10130 c-3 -6 5 -10 19 -10 14 0 28 5 31 10 3 6 -5 10 -19 10
-14 0 -28 -4 -31 -10z"/>
<path d="M12253 10133 c9 -2 23 -2 30 0 6 3 -1 5 -18 5 -16 0 -22 -2 -12 -5z"/>
<path d="M12273 10093 c9 -2 23 -2 30 0 6 3 -1 5 -18 5 -16 0 -22 -2 -12 -5z"/>
<path d="M12168 10083 c6 -2 18 -2 25 0 6 3 1 5 -13 5 -14 0 -19 -2 -12 -5z"/>
<path d="M12233 10053 c9 -2 25 -2 35 0 9 3 1 5 -18 5 -19 0 -27 -2 -17 -5z"/>
<path d="M12118 10043 c12 -2 30 -2 40 0 9 3 -1 5 -23 4 -22 0 -30 -2 -17 -4z"/>
<path d="M12193 10013 c9 -2 23 -2 30 0 6 3 -1 5 -18 5 -16 0 -22 -2 -12 -5z"/>
<path d="M12093 10003 c15 -2 39 -2 55 0 15 2 2 4 -28 4 -30 0 -43 -2 -27 -4z"/>
<path d="M12148 9973 c12 -2 30 -2 40 0 9 3 -1 5 -23 4 -22 0 -30 -2 -17 -4z"/>
<path d="M12128 9933 c6 -2 18 -2 25 0 6 3 1 5 -13 5 -14 0 -19 -2 -12 -5z"/>
<path d="M7385 9910 c-4 -6 7 -10 25 -10 18 0 29 4 25 10 -3 6 -15 10 -25 10
-10 0 -22 -4 -25 -10z"/>
<path d="M12088 9893 c6 -2 18 -2 25 0 6 3 1 5 -13 5 -14 0 -19 -2 -12 -5z"/>
<path d="M12048 9853 c6 -2 18 -2 25 0 6 3 1 5 -13 5 -14 0 -19 -2 -12 -5z"/>
<path d="M7445 9830 c3 -5 15 -10 26 -10 10 0 19 5 19 10 0 6 -12 10 -26 10
-14 0 -23 -4 -19 -10z"/>
<path d="M11948 9763 c7 -3 16 -2 19 1 4 3 -2 6 -13 5 -11 0 -14 -3 -6 -6z"/>
<path d="M7610 9660 c0 -5 9 -10 19 -10 11 0 23 5 26 10 4 6 -5 10 -19 10 -14
0 -26 -4 -26 -10z"/>
<path d="M11703 9627 c-4 -6 0 -8 10 -4 9 3 19 2 22 -3 4 -6 -36 -11 -102 -12
l-108 -1 110 -7 c61 -4 126 -8 146 -9 29 -1 38 -6 43 -23 6 -23 7 -23 18 -3 6
11 14 22 18 25 4 3 9 14 12 26 5 20 2 21 -78 22 -49 0 -87 -5 -91 -11z m77 -1
c0 -3 -4 -8 -10 -11 -5 -3 -10 -1 -10 4 0 6 5 11 10 11 6 0 10 -2 10 -4z"/>
<path d="M9938 9613 c6 -2 18 -2 25 0 6 3 1 5 -13 5 -14 0 -19 -2 -12 -5z"/>
<path d="M7767 9583 c-27 -4 -27 -5 -21 -61 4 -36 14 -64 26 -75 18 -18 19
-18 38 5 11 13 19 28 20 34 0 5 16 16 35 24 l34 13 -31 23 c-17 13 -35 21 -39
18 -5 -3 -9 2 -9 10 0 9 -6 15 -12 15 -7 -1 -25 -4 -41 -6z"/>
<path d="M9983 9583 c9 -2 23 -2 30 0 6 3 -1 5 -18 5 -16 0 -22 -2 -12 -5z"/>
<path d="M7897 9560 c8 -29 22 -34 41 -17 9 8 22 12 29 10 6 -2 13 0 16 4 3 4
-6 9 -19 9 -13 1 -35 5 -48 8 -20 5 -23 3 -19 -14z"/>
<path d="M9398 9573 c18 -2 45 -2 60 0 15 2 0 4 -33 4 -33 0 -45 -2 -27 -4z"/>
<path d="M9568 9573 c7 -3 16 -2 19 1 4 3 -2 6 -13 5 -11 0 -14 -3 -6 -6z"/>
<path d="M7620 9555 c0 -9 6 -12 15 -9 8 4 15 7 15 9 0 2 -7 5 -15 9 -9 3 -15
0 -15 -9z"/>
<path d="M8015 9560 c3 -5 12 -7 20 -3 21 7 19 13 -6 13 -11 0 -18 -4 -14 -10z"/>
<path d="M8298 9563 c18 -2 45 -2 60 0 15 2 0 4 -33 4 -33 0 -45 -2 -27 -4z"/>
<path d="M11745 9541 c-7 -12 12 -24 25 -16 11 7 4 25 -10 25 -5 0 -11 -4 -15
-9z"/>
<path d="M7671 9498 c0 -13 3 -17 6 -10 2 6 10 9 16 5 7 -4 6 1 -2 10 -18 22
-21 21 -20 -5z"/>
<path d="M10345 9490 c3 -5 8 -10 11 -10 2 0 4 5 4 10 0 6 -5 10 -11 10 -5 0
-7 -4 -4 -10z"/>
<path d="M7733 9435 c7 -13 14 -20 15 -14 5 14 -6 39 -17 39 -5 0 -4 -11 2
-25z"/>
<path d="M11370 9120 c0 -5 5 -10 10 -10 6 0 10 5 10 10 0 6 -4 10 -10 10 -5
0 -10 -4 -10 -10z"/>
<path d="M11732 9031 c4 -13 18 -16 19 -4 0 4 -5 9 -11 12 -7 2 -11 -2 -8 -8z"/>
<path d="M7754 8720 c0 -124 2 -174 3 -112 2 61 2 163 0 225 -1 61 -3 11 -3
-113z"/>
<path d="M7450 8680 c0 -5 7 -10 15 -10 8 0 15 5 15 10 0 6 -7 10 -15 10 -8 0
-15 -4 -15 -10z"/>
<path d="M13647 7970 c-4 -360 -14 -1463 -22 -2450 -8 -987 -19 -2164 -25
-2615 -5 -451 -10 -867 -11 -925 0 -82 -3 -99 -10 -78 -8 21 -21 30 -56 40
-39 11 -49 20 -69 58 -13 25 -26 71 -30 103 -3 31 -9 55 -14 52 -5 -3 -27 0
-49 7 -57 18 -85 74 -90 178 -1 10 -12 17 -32 18 -17 1 -40 7 -50 13 -28 15
-59 82 -59 129 0 25 -5 40 -12 41 -7 1 -24 3 -37 4 -14 1 -38 18 -54 36 -39
45 -22 21 108 -159 61 -83 120 -166 133 -184 12 -18 52 -73 87 -123 36 -49
103 -144 150 -210 46 -66 104 -147 128 -180 24 -33 61 -85 83 -116 21 -31 47
-62 57 -68 16 -10 17 -5 17 66 l0 78 -47 3 c-52 3 -72 17 -105 70 l-21 34 7
1187 c3 652 8 1452 11 1776 15 1772 28 3842 23 3855 -2 8 -8 -280 -11 -640z"/>
<path d="M7778 8483 c7 -3 16 -2 19 1 4 3 -2 6 -13 5 -11 0 -14 -3 -6 -6z"/>
<path d="M17160 8335 c0 -8 2 -15 4 -15 2 0 6 7 10 15 3 8 1 15 -4 15 -6 0
-10 -7 -10 -15z"/>
<path d="M7740 7760 c-1 -250 -3 -542 -6 -647 -3 -121 -2 -193 4 -193 12 0 22
1244 11 1275 -4 11 -8 -185 -9 -435z"/>
<path d="M11776 7032 c-2 -4 -1 -14 3 -21 6 -10 10 -9 14 3 6 16 -8 32 -17 18z"/>
<path d="M7730 6075 c0 -393 0 -718 -1 -722 0 -5 -16 -22 -35 -39 -45 -42 -44
-55 1 -15 20 17 40 31 46 31 7 0 10 231 8 730 -2 402 -7 730 -11 730 -4 0 -8
-322 -8 -715z"/>
<path d="M5253 6493 c9 -2 23 -2 30 0 6 3 -1 5 -18 5 -16 0 -22 -2 -12 -5z"/>
<path d="M4965 6450 c-13 -6 -5 -7 25 -3 25 3 47 7 49 9 9 8 -55 2 -74 -6z"/>
<path d="M4660 6400 c-34 -7 -34 -7 -5 -8 17 0 44 4 60 8 27 7 27 8 5 8 -14
-1 -41 -4 -60 -8z"/>
<path d="M10505 5901 l20 -24 480 4 480 4 -3 -825 c-2 -516 -7 -829 -13 -835
-7 -6 -13 -5 -19 5 -7 10 -10 11 -10 3 0 -10 -73 -13 -337 -11 -186 1 -319 3
-295 5 26 3 42 9 42 17 0 8 7 19 15 26 16 13 21 70 6 70 -5 0 -12 15 -15 34
-6 29 -9 33 -33 28 -25 -5 -26 -3 -20 26 4 20 2 32 -6 35 -7 2 -13 24 -15 48
-2 24 -5 81 -8 127 -4 62 -9 82 -20 82 -9 0 -14 11 -14 35 0 20 -7 49 -15 65
-8 16 -20 53 -26 82 -6 29 -22 75 -35 102 -23 48 -29 72 -39 151 -7 66 -25
126 -40 142 -8 8 -15 23 -15 33 0 10 -4 22 -10 25 -5 3 -10 15 -10 26 0 10 -7
19 -15 19 -8 0 -15 9 -15 20 0 11 -4 20 -10 20 -9 0 -18 -345 -10 -375 2 -5 3
-18 4 -27 0 -9 3 -15 7 -13 3 3 11 -7 17 -21 10 -20 9 -26 -4 -31 -9 -3 -20 0
-24 8 -13 20 -24 3 -25 -39 -1 -40 -16 -73 -46 -103 -11 -11 -16 -25 -12 -36
3 -10 3 -15 -2 -11 -9 9 -47 -38 -76 -94 -16 -31 -25 -38 -49 -38 -27 0 -30
-3 -29 -32 0 -20 3 -27 7 -18 4 8 15 16 26 18 17 3 18 -1 12 -57 -6 -51 -5
-61 9 -61 29 0 15 -25 -15 -26 -27 -1 -29 2 -33 40 l-4 41 -1 -43 c-3 -58 11
-82 48 -82 28 0 30 2 32 43 l1 42 4 -37 c8 -72 31 -30 37 67 6 92 6 91 16 75
6 -9 10 -10 10 -3 0 6 7 19 16 27 9 9 11 16 4 16 -6 0 -8 5 -5 10 10 16 55 12
55 -5 0 -8 9 -15 19 -15 23 0 26 -10 40 -110 14 -103 16 -162 6 -184 -5 -11
-2 -36 9 -65 9 -25 16 -60 16 -77 l0 -31 453 4 c248 2 461 6 472 8 17 4 20 11
17 52 -2 26 -3 55 -4 63 0 8 0 362 1 786 1 424 -2 779 -5 789 -6 15 -41 16
-495 9 -407 -6 -492 -5 -506 7 -14 10 -13 8 2 -10z m2 -993 c-3 -8 -6 -5 -6 6
-1 11 2 17 5 13 3 -3 4 -12 1 -19z m-30 -166 c-16 -15 -17 -15 -17 1 0 10 -8
17 -20 17 -23 0 -24 4 -9 31 10 20 11 20 36 -6 25 -24 25 -27 10 -43z m-123
-138 c10 -25 7 -34 -9 -34 -9 0 -15 9 -15 25 0 28 15 34 24 9z"/>
<path d="M4369 5830 c-13 -8 -16 -45 -18 -272 -1 -144 -5 -266 -7 -270 -7 -11
14 -10 37 2 18 10 19 24 19 280 0 149 -3 270 -7 270 -5 0 -15 -5 -24 -10z"/>
<path d="M7765 5790 c-3 -5 1 -10 10 -10 9 0 13 5 10 10 -3 6 -8 10 -10 10 -2
0 -7 -4 -10 -10z"/>
<path d="M7450 5720 c19 -13 30 -13 30 0 0 6 -10 10 -22 10 -19 0 -20 -2 -8
-10z"/>
<path d="M9628 5593 c-18 -5 -25 -23 -9 -23 5 0 24 7 42 15 30 13 31 14 9 13
-14 0 -33 -2 -42 -5z"/>
<path d="M10383 5555 c-17 -12 -42 -13 -138 -7 -64 4 -121 5 -126 1 -22 -13
26 -18 161 -16 107 1 140 -1 140 -10 0 -7 -11 -13 -25 -13 -14 0 -25 -4 -25
-9 0 -5 -10 -12 -22 -15 -42 -11 -82 -56 -89 -100 l-6 -41 -2 35 -1 35 -78 2
c-42 1 -94 7 -114 14 -41 13 -90 3 -53 -11 18 -7 18 -8 -8 -15 -32 -8 -49 1
-27 16 27 17 -9 29 -90 30 -41 0 -86 2 -100 4 -25 3 -25 3 -23 -73 6 -197 8
-296 5 -281 -2 13 -26 17 -140 22 -75 4 -157 9 -182 12 l-45 5 50 -14 c67 -19
163 -36 259 -46 70 -7 82 -11 99 -34 18 -25 20 -25 32 -9 12 16 25 16 196 5
245 -16 268 -16 319 9 24 12 55 22 68 22 31 0 25 29 -8 38 -18 5 -20 7 -7 8
11 1 21 10 24 22 5 16 8 18 15 7 7 -9 8 -5 3 12 -6 24 -13 200 -15 345 0 53
-3 66 -11 53 -5 -10 -15 -18 -21 -18 -7 0 -6 5 2 15 16 19 10 19 -17 0z m-510
-122 c-7 -2 -19 -2 -25 0 -7 3 -2 5 12 5 14 0 19 -2 13 -5z m144 -70 c-3 -10
-5 -4 -5 12 0 17 2 24 5 18 2 -7 2 -21 0 -30z m-28 -45 c0 -33 -2 -38 -9 -23
-12 28 -12 65 0 65 6 0 10 -19 9 -42z m118 16 c-3 -3 -12 -4 -19 -1 -8 3 -5 6
6 6 11 1 17 -2 13 -5z m0 -69 c0 -8 -4 -12 -9 -9 -4 3 -8 9 -8 15 0 5 4 9 8 9
5 0 9 -7 9 -15z m236 -45 c-20 -50 -33 -51 -33 -4 0 19 4 33 9 29 5 -3 12 -1
16 5 16 26 22 6 8 -30z m-315 -157 c-10 -2 -26 -2 -35 0 -10 3 -2 5 17 5 19 0
27 -2 18 -5z"/>
<path d="M9597 5553 c-4 -3 -7 -16 -7 -28 0 -13 -7 -28 -15 -35 -8 -7 -15 -18
-15 -24 0 -6 4 -5 9 3 5 7 14 10 20 7 7 -5 11 4 11 26 0 19 5 39 12 46 7 7 8
12 2 12 -6 0 -14 -3 -17 -7z"/>
<path d="M9671 5484 c0 -11 3 -14 6 -6 3 7 2 16 -1 19 -3 4 -6 -2 -5 -13z"/>
<path d="M10035 5469 c-5 -8 47 -16 150 -23 58 -4 63 -4 30 4 -63 15 -176 27
-180 19z"/>
<path d="M9252 5246 c2 -15 8 -26 13 -26 15 0 12 43 -3 48 -10 3 -13 -4 -10
-22z"/>
<path d="M7633 5237 c-35 -39 -37 -53 -2 -20 18 18 31 35 28 38 -3 3 -15 -5
-26 -18z"/>
<path d="M11994 5105 c0 -82 2 -115 3 -72 2 43 2 110 0 150 -1 40 -3 5 -3 -78z"/>
<path d="M11883 5145 c0 -38 2 -53 4 -32 2 20 2 52 0 70 -2 17 -4 1 -4 -38z"/>
<path d="M11935 4775 c0 -231 1 -324 2 -207 2 117 2 306 0 420 -1 114 -2 18
-2 -213z"/>
<path d="M7530 5139 c-19 -22 -37 -42 -40 -45 -3 -3 -7 -254 -10 -557 -5 -523
-6 -552 -23 -552 -17 0 -18 26 -18 525 0 308 -4 517 -9 505 -5 -11 -9 -266 -9
-566 -1 -486 -3 -548 -17 -560 -12 -10 -20 -10 -35 -1 -17 11 -19 9 -19 -26 0
-29 -8 -47 -30 -72 -16 -18 -30 -43 -30 -55 0 -12 -16 -39 -35 -59 -19 -21
-35 -45 -35 -54 -1 -22 -35 -63 -51 -60 -6 2 -16 -12 -21 -31 -13 -48 -35 -78
-64 -85 -15 -4 -24 -13 -24 -27 0 -11 -6 -35 -14 -54 -11 -25 -21 -34 -43 -37
-21 -2 -29 -9 -31 -28 -1 -14 -10 -41 -18 -61 -14 -33 -20 -37 -50 -35 l-34 1
-6 -56 c-6 -58 -39 -109 -68 -109 -8 0 -15 -17 -18 -44 -7 -56 -34 -94 -73
-98 -27 -3 -30 -7 -37 -50 -9 -67 -42 -111 -79 -106 -32 5 -39 -6 -39 -60 0
-48 -33 -102 -62 -104 -13 0 -30 -1 -38 -2 -11 -1 -17 -17 -21 -56 -4 -30 -14
-70 -24 -87 -15 -30 -20 -33 -66 -33 l-49 0 0 -39 c0 -63 -10 -97 -40 -130
-23 -25 -37 -31 -68 -31 -44 0 -52 -10 -52 -68 -1 -96 -43 -172 -96 -172 -12
0 -25 -4 -29 -10 -3 -5 -12 -7 -20 -3 -12 4 -15 -7 -15 -64 0 -69 -8 -89 -53
-140 -15 -17 -24 -20 -33 -12 -15 12 -76 8 -86 -6 -4 -5 -8 -30 -8 -55 -1 -66
-15 -116 -45 -160 -24 -35 -29 -38 -50 -28 -13 6 -32 7 -42 4 -10 -4 -20 -7
-23 -6 -11 3 -19 -40 -19 -105 -1 -55 -7 -83 -29 -130 l-28 -59 -62 -1 c-34 0
-67 -6 -73 -12 -6 -6 -14 -52 -18 -102 -5 -68 -11 -96 -27 -118 -12 -16 -24
-38 -28 -51 -9 -26 -33 -28 -65 -6 -22 16 -24 16 -33 0 -5 -9 -19 -16 -32 -16
-39 0 -54 -28 -62 -119 -5 -68 -12 -92 -34 -125 -15 -23 -31 -51 -34 -63 -7
-21 -14 -23 -72 -23 -97 0 -120 -21 -129 -114 -8 -79 -40 -227 -55 -257 -6
-10 -17 -19 -25 -19 -8 0 -21 -13 -30 -30 -16 -30 -18 -31 -105 -34 -35 -1
-47 -18 -49 -73 -1 -22 2 -23 92 -23 l92 1 79 117 c43 64 320 477 614 917 633
945 614 917 791 1165 77 107 165 231 196 275 30 44 97 138 147 210 73 105 178
262 243 366 10 16 67 100 199 294 38 55 81 114 96 130 15 17 62 84 105 150
145 224 228 345 236 345 11 0 4 -47 -13 -72 -38 -60 -59 -98 -55 -98 5 0 55
74 78 115 35 64 86 69 153 16 27 -21 53 -32 94 -37 63 -8 619 1 1042 17 341
12 342 12 351 109 6 64 6 64 3 -10 -2 -41 -5 -86 -8 -100 -2 -14 2 -34 10 -44
13 -18 37 -19 679 -12 366 4 672 9 680 12 10 4 15 20 15 43 0 21 3 41 7 45 4
4 6 23 4 41 -1 19 4 48 12 65 9 16 11 30 6 30 -5 0 -9 7 -9 17 0 13 -4 11 -20
-7 -15 -18 -19 -32 -15 -63 9 -67 3 -72 -67 -71 -78 1 -98 10 -98 40 0 19 -8
25 -42 35 -49 12 -80 41 -76 67 2 11 -5 18 -19 20 -13 2 -23 8 -23 13 0 5 10
9 23 9 35 0 50 15 42 40 -6 19 -12 21 -41 17 l-34 -6 0 70 c0 39 4 69 10 69 6
0 10 -6 11 -12 0 -7 4 -4 9 7 7 16 9 13 9 -17 1 -20 6 -40 12 -44 8 -5 10 3 7
25 -3 18 -1 34 4 37 4 3 8 -1 8 -8 0 -8 9 -21 20 -31 25 -21 70 -33 70 -18 0
6 -9 11 -20 11 -11 0 -20 5 -20 10 0 6 11 10 24 10 32 0 56 10 56 22 0 6 7 16
17 23 25 18 6 38 -33 33 -19 -2 -34 0 -34 4 0 5 -8 4 -19 -1 -10 -6 -28 -8
-40 -6 -11 2 -21 -1 -21 -7 0 -7 -6 -6 -15 2 -8 7 -15 8 -15 3 0 -13 -33 -12
-42 1 -5 7 -8 3 -8 -9 0 -16 -2 -17 -10 -5 -5 8 -12 11 -16 8 -10 -11 4 -40
16 -33 6 4 9 -30 8 -97 0 -57 -3 -88 -5 -70 -6 44 -23 41 -25 -5 -1 -35 -2
-34 -8 12 l-7 50 -1 -47 c-2 -44 -4 -48 -26 -48 -38 0 -55 -10 -49 -28 5 -14
3 -15 -8 -4 -7 6 -26 12 -41 12 -22 0 -28 5 -28 21 0 17 -5 20 -37 17 -35 -3
-39 -6 -44 -38 -5 -28 -7 -30 -8 -10 -2 14 -5 20 -7 13 -4 -9 -13 -9 -31 -2
-14 5 -42 7 -62 3 -20 -3 -31 -2 -25 3 9 6 8 11 -2 21 -12 11 -14 9 -15 -10
-1 -22 -1 -22 -9 2 -8 24 -8 24 -9 3 -1 -16 -7 -23 -22 -23 -16 0 -20 5 -17
27 2 22 -2 28 -26 34 -16 5 -33 6 -38 3 -4 -3 -8 1 -8 8 0 9 -3 9 -10 -2 -9
-13 -11 -13 -20 0 -8 12 -10 11 -10 -7 0 -12 6 -24 13 -26 7 -3 5 -6 -5 -6
-13 -1 -18 7 -18 24 0 25 -14 33 -25 15 -10 -17 -25 -11 -25 10 0 18 -6 20
-42 18 -24 -2 -46 -7 -50 -13 -4 -5 -8 32 -8 83 0 50 -3 92 -7 92 -5 0 -8 -65
-8 -145 0 -163 -12 -230 -16 -90 l-3 90 -6 -100 c-3 -55 -7 -90 -8 -77 -4 44
-22 21 -23 -30 -1 -51 -1 -51 -9 -18 -5 19 -12 52 -15 73 -6 38 -25 52 -25 18
0 -11 -5 -23 -11 -27 -7 -4 -9 -24 -6 -51 4 -36 1 -49 -14 -64 -11 -11 -24
-17 -29 -14 -6 4 -10 -1 -10 -10 0 -23 -23 -14 -26 10 -2 11 -7 21 -11 22 -11
4 -10 344 0 361 5 7 4 18 -1 25 -5 7 -12 49 -13 94 -2 44 -1 76 4 70 4 -7 6 1
5 18 -1 17 0 48 1 70 3 36 4 38 12 15 5 -16 6 6 3 58 -6 81 -6 82 17 83 l24 0
-23 10 c-22 8 -23 13 -17 62 8 59 35 102 35 54 0 -16 5 -27 14 -27 7 0 29 -3
47 -6 31 -5 32 -4 17 9 -10 8 -18 28 -18 45 0 23 -6 32 -22 38 l-21 6 24 19
24 19 -65 1 c-36 1 -71 1 -77 0 -22 -3 -14 19 10 28 20 8 77 61 65 61 -3 0
-19 -7 -36 -16 -17 -8 -59 -21 -92 -28 -55 -11 -72 -26 -29 -26 15 0 17 -15
21 -132 2 -73 1 -134 -2 -136 -3 -1 -5 -175 -5 -387 l0 -384 -25 -12 c-31 -14
-238 -25 -823 -40 -485 -13 -525 -10 -547 31 -6 10 -13 72 -16 137 -7 159 -11
206 -23 288 -18 125 -25 282 -12 289 15 10 14 26 -3 26 -18 0 -31 136 -21 210
6 40 11 50 26 50 10 0 19 -4 19 -10 0 -5 7 -10 16 -10 11 0 15 6 11 20 -5 20
7 28 17 11 4 -5 22 -5 43 0 21 5 120 9 219 9 161 0 688 20 911 35 72 5 82 3
86 -12 4 -17 5 -16 6 1 0 10 6 16 14 13 6 -2 21 0 32 5 21 9 -90 6 -510 -12
-377 -17 -913 -17 -957 -2 -37 13 -38 15 -38 62 0 41 5 55 31 85 17 19 27 35
23 34 -5 -1 -25 -19 -44 -40z m-1 -921 c1 -117 -1 -138 -14 -138 -13 0 -15 30
-15 209 0 244 11 336 21 171 4 -58 7 -167 8 -242z m2761 113 c0 -6 -4 -13 -10
-16 -5 -3 -10 1 -10 9 0 9 5 16 10 16 6 0 10 -4 10 -9z m-730 -185 c0 -3 -4
-8 -10 -11 -5 -3 -10 -1 -10 4 0 6 5 11 10 11 6 0 10 -2 10 -4z m13 -31 c-3
-9 -8 -14 -10 -11 -3 3 -2 9 2 15 9 16 15 13 8 -4z m390 8 c-7 -2 -21 -2 -30
0 -10 3 -4 5 12 5 17 0 24 -2 18 -5z m4 -35 c-3 -8 -6 -5 -6 6 -1 11 2 17 5
13 3 -3 4 -12 1 -19z m230 0 c-3 -8 -6 -5 -6 6 -1 11 2 17 5 13 3 -3 4 -12 1
-19z m-670 -25 c-3 -10 -5 -4 -5 12 0 17 2 24 5 18 2 -7 2 -21 0 -30z m283 31
c0 -4 -8 -13 -17 -20 -15 -11 -15 -15 -4 -23 9 -6 10 -11 2 -15 -6 -4 -11 -14
-11 -22 0 -8 5 -12 10 -9 6 4 10 -5 10 -19 0 -18 -5 -26 -17 -26 -36 0 2 -16
63 -26 92 -15 114 -10 114 30 0 17 4 38 9 45 8 12 11 8 16 -15 4 -16 9 -36 11
-45 3 -9 -2 -19 -11 -23 -8 -3 -15 -13 -15 -23 0 -16 -12 -18 -110 -19 l-109
-2 -7 34 c-3 19 -1 54 5 79 6 24 11 58 11 74 0 26 4 31 25 31 14 0 25 -3 25
-6z m60 -3 c0 -6 -9 -9 -20 -8 -11 1 -20 5 -20 9 0 4 9 8 20 8 11 0 20 -4 20
-9z m70 -20 c0 -42 -14 -46 -17 -5 -2 19 2 34 7 34 6 0 10 -13 10 -29z m190
19 c0 -5 -2 -10 -4 -10 -3 0 -8 5 -11 10 -3 6 -1 10 4 10 6 0 11 -4 11 -10z
m-483 -37 c-3 -10 -5 -4 -5 12 0 17 2 24 5 18 2 -7 2 -21 0 -30z m350 -10 c-3
-10 -5 -2 -5 17 0 19 2 27 5 18 2 -10 2 -26 0 -35z m-100 5 c-3 -7 -5 -2 -5
12 0 14 2 19 5 13 2 -7 2 -19 0 -25z m-280 -10 c-3 -7 -5 -2 -5 12 0 14 2 19
5 13 2 -7 2 -19 0 -25z m650 -45 c-3 -10 -5 -2 -5 17 0 19 2 27 5 18 2 -10 2
-26 0 -35z m-600 22 c-5 -11 0 -13 23 -9 24 5 28 3 26 -12 -4 -29 -52 -31 -59
-3 -6 22 -1 39 10 39 3 0 3 -7 0 -15z m365 -57 c-6 -6 -16 -7 -23 -3 -9 6 -7
12 7 22 21 15 34 -1 16 -19z m86 0 c-6 -16 -33 -22 -56 -13 -15 6 -15 8 3 15
31 13 57 12 53 -2z m-861 -60 c-3 -8 -6 -5 -6 6 -1 11 2 17 5 13 3 -3 4 -12 1
-19z"/>
<path d="M10445 5120 c3 -5 8 -10 11 -10 2 0 4 5 4 10 0 6 -5 10 -11 10 -5 0
-7 -4 -4 -10z"/>
<path d="M10463 5085 c0 -8 4 -15 9 -15 4 0 8 4 8 9 0 6 -4 12 -8 15 -5 3 -9
-1 -9 -9z"/>
<path d="M9775 5050 c3 -5 8 -10 11 -10 2 0 4 5 4 10 0 6 -5 10 -11 10 -5 0
-7 -4 -4 -10z"/>
<path d="M11882 5010 c0 -19 2 -27 5 -17 2 9 2 25 0 35 -3 9 -5 1 -5 -18z"/>
<path d="M12052 4950 c0 -19 2 -27 5 -17 2 9 2 25 0 35 -3 9 -5 1 -5 -18z"/>
<path d="M11994 4830 c0 -69 1 -97 3 -62 2 34 2 90 0 125 -2 34 -3 6 -3 -63z"/>
<path d="M11882 4870 c-1 -36 -4 -180 -6 -320 -4 -214 -3 -236 5 -135 5 66 8
210 6 320 -1 110 -4 171 -5 135z"/>
<path d="M10410 4876 c-15 -39 -12 -46 6 -13 9 16 13 31 10 34 -3 3 -10 -6
-16 -21z"/>
<path d="M9298 4834 c-3 -5 -8 -22 -12 -37 -4 -15 -11 -25 -16 -22 -5 3 -12 0
-16 -6 -4 -7 -3 -9 4 -5 6 3 17 -1 25 -9 23 -23 47 -19 47 8 0 13 -5 28 -12
35 -9 9 -7 12 13 13 20 1 21 2 4 6 -11 3 -23 10 -26 15 -4 6 -9 6 -11 2z"/>
<path d="M9340 4770 c0 -19 4 -29 10 -25 6 4 8 10 5 15 -3 4 -1 10 4 12 5 1 3
9 -5 16 -12 11 -14 8 -14 -18z"/>
<path d="M12052 4770 c0 -19 2 -27 5 -17 2 9 2 25 0 35 -3 9 -5 1 -5 -18z"/>
<path d="M7353 4735 c0 -27 2 -38 4 -22 2 15 2 37 0 50 -2 12 -4 0 -4 -28z"/>
<path d="M9313 4665 c-9 -24 1 -27 15 -5 8 13 8 20 2 20 -6 0 -13 -7 -17 -15z"/>
<path d="M11992 4650 c0 -19 2 -27 5 -17 2 9 2 25 0 35 -3 9 -5 1 -5 -18z"/>
<path d="M9293 4635 c0 -22 2 -30 4 -17 2 12 2 30 0 40 -3 9 -5 -1 -4 -23z"/>
<path d="M9375 4661 c-9 -16 3 -31 19 -25 8 3 16 -2 19 -13 4 -17 5 -17 6 1 1
15 4 16 16 6 13 -10 15 -9 15 9 0 14 -6 21 -19 21 -11 0 -26 3 -34 6 -8 3 -18
1 -22 -5z"/>
<path d="M9461 4643 c-1 -21 4 -32 11 -30 7 1 15 -11 19 -28 6 -28 7 -27 8 12
1 38 3 41 25 37 13 -2 29 2 35 10 9 11 6 15 -19 18 -16 3 -30 1 -30 -3 0 -5
-7 -6 -15 -3 -9 4 -15 0 -16 -7 0 -8 -4 -5 -9 6 -7 17 -9 15 -9 -12z"/>
<path d="M10210 4660 c0 -5 -17 -7 -37 -5 -21 1 -46 -1 -55 -6 -13 -7 -18 -6
-18 3 0 10 -3 9 -9 -1 -5 -8 -7 -21 -5 -30 2 -9 -2 -2 -10 14 l-15 30 -1 -40
c-1 -22 -4 -34 -7 -27 -8 19 -21 14 -26 -10 -3 -15 -5 -9 -6 14 0 20 -6 40
-12 43 -17 11 -22 -1 -9 -24 7 -14 7 -21 0 -21 -5 0 -10 -7 -10 -15 0 -8 5
-15 10 -15 6 0 10 -8 10 -18 0 -10 3 -22 6 -25 12 -12 44 14 45 36 1 17 3 14
10 -10 l9 -32 37 20 c27 15 34 17 24 5 -12 -14 -11 -16 7 -16 12 0 22 8 25 21
3 12 10 18 16 14 7 -4 12 9 13 37 1 42 1 42 8 -12 l7 -55 1 48 c1 30 6 46 14
45 21 -5 20 29 -2 35 -11 3 -20 1 -20 -3z m-60 -30 c8 13 10 12 10 -2 0 -13
-8 -18 -30 -18 -16 0 -30 4 -30 9 0 14 24 19 33 7 5 -8 10 -6 17 4z m-63 -62
c-3 -8 -6 -5 -6 6 -1 11 2 17 5 13 3 -3 4 -12 1 -19z m35 -10 c-6 -6 -12 -6
-17 3 -5 8 -4 10 3 5 7 -4 12 0 13 11 0 12 2 13 6 5 3 -8 1 -18 -5 -24z m-75
0 c-3 -8 -6 -5 -6 6 -1 11 2 17 5 13 3 -3 4 -12 1 -19z"/>
<path d="M9720 4649 c-11 -8 -12 -12 -2 -16 17 -7 15 -23 -3 -23 -9 0 -15 10
-16 23 -1 22 -1 22 -8 -2 -3 -13 -15 -25 -25 -27 -10 -1 -24 -8 -30 -15 -8 -9
-1 -10 32 -6 45 6 53 -4 31 -44 -6 -11 -8 -25 -6 -32 2 -7 14 8 26 33 20 41
22 42 17 13 -4 -26 -1 -35 15 -44 16 -8 24 -8 34 3 14 14 3 58 -15 58 -5 0
-10 5 -10 10 0 6 9 10 20 10 11 0 20 5 20 10 0 6 -11 10 -25 10 -19 0 -24 5
-22 21 2 25 -12 33 -33 18z"/>
<path d="M9901 4641 c-8 -5 -17 -26 -21 -47 l-8 -39 -1 40 c-1 43 -14 38 -25
-10 -5 -22 -4 -26 4 -15 6 9 10 10 10 3 0 -6 -5 -15 -10 -18 -6 -4 -4 -12 6
-22 12 -13 18 -13 24 -4 5 10 9 9 13 -2 4 -11 -4 -19 -24 -26 -16 -5 -29 -12
-29 -15 0 -3 7 -3 16 1 11 4 22 -1 30 -12 13 -17 14 -17 15 -2 1 9 2 23 3 30
1 6 -1 24 -5 39 -4 14 -5 29 -2 32 7 7 33 -5 33 -16 0 -5 -5 -6 -11 -2 -7 4
-10 -1 -7 -11 2 -11 14 -20 31 -22 25 -3 27 -1 29 32 1 19 2 43 2 52 1 25 -24
28 -31 4 -3 -14 -13 -21 -29 -21 -30 0 -31 16 -1 41 22 19 14 26 -12 10z m46
-93 c-3 -8 -6 -5 -6 6 -1 11 2 17 5 13 3 -3 4 -12 1 -19z"/>
<path d="M10030 4641 c0 -6 5 -13 10 -16 6 -3 10 1 10 9 0 9 -4 16 -10 16 -5
0 -10 -4 -10 -9z"/>
<path d="M7353 4595 c0 -27 2 -38 4 -22 2 15 2 37 0 50 -2 12 -4 0 -4 -28z"/>
<path d="M10180 4524 c0 -8 5 -12 10 -9 6 3 10 10 10 16 0 5 -4 9 -10 9 -5 0
-10 -7 -10 -16z"/>
<path d="M7352 4505 c0 -16 2 -22 5 -12 2 9 2 23 0 30 -3 6 -5 -1 -5 -18z"/>
<path d="M9412 4475 c0 -16 2 -22 5 -12 2 9 2 23 0 30 -3 6 -5 -1 -5 -18z"/>
<path d="M10230 4466 c0 -14 5 -26 10 -26 6 0 10 9 10 19 0 11 -4 23 -10 26
-6 4 -10 -5 -10 -19z"/>
<path d="M10211 4464 c0 -11 3 -14 6 -6 3 7 2 16 -1 19 -3 4 -6 -2 -5 -13z"/>
<path d="M9878 4444 c-11 -17 -12 -79 -2 -97 10 -17 11 -17 29 3 17 18 17 20
1 20 -9 0 -14 5 -11 10 4 6 11 8 16 5 16 -10 99 -11 99 -1 0 5 3 7 6 3 7 -7
34 17 34 31 0 5 -12 7 -27 5 -16 -2 -50 -4 -77 -5 -40 -1 -51 3 -56 17 -4 10
-9 14 -12 9z"/>
<path d="M9726 4423 c-6 -15 -9 -15 -17 -3 -7 11 -8 5 -3 -20 8 -42 37 -69 42
-39 5 30 30 22 37 -11 8 -35 12 -36 45 -10 17 13 21 22 14 27 -6 5 -15 24 -19
43 -5 19 -10 29 -12 23 -6 -16 -55 -17 -70 -2 -7 7 -12 5 -17 -8z"/>
<path d="M11792 4373 c-10 -16 -22 -36 -25 -45 -4 -12 -17 -18 -37 -18 -18 0
-29 -4 -25 -10 3 -5 30 -10 60 -10 47 0 56 -3 74 -27 l21 -28 -7 75 c-8 94
-26 113 -61 63z"/>
<path d="M11693 4355 c0 -22 2 -30 4 -17 2 12 2 30 0 40 -3 9 -5 -1 -4 -23z"/>
<path d="M9330 4370 c0 -5 5 -10 10 -10 6 0 10 5 10 10 0 6 -4 10 -10 10 -5 0
-10 -4 -10 -10z"/>
<path d="M9430 4366 c0 -9 5 -16 10 -16 6 0 10 -7 10 -15 0 -8 5 -15 10 -15 6
0 10 9 10 20 0 12 5 17 14 14 8 -3 17 -1 21 5 4 7 -4 11 -19 11 -13 0 -31 3
-40 6 -11 4 -16 1 -16 -10z"/>
<path d="M10131 4364 c0 -11 3 -14 6 -6 3 7 2 16 -1 19 -3 4 -6 -2 -5 -13z"/>
<path d="M11983 4330 c0 -30 2 -43 4 -27 2 15 2 39 0 55 -2 15 -4 2 -4 -28z"/>
<path d="M9382 4345 c0 -16 2 -22 5 -12 2 9 2 23 0 30 -3 6 -5 -1 -5 -18z"/>
<path d="M9575 4360 c-3 -5 -2 -10 4 -10 5 0 13 5 16 10 3 6 2 10 -4 10 -5 0
-13 -4 -16 -10z"/>
<path d="M7352 4340 c0 -14 2 -19 5 -12 2 6 2 18 0 25 -3 6 -5 1 -5 -13z"/>
<path d="M9613 4300 c0 -36 2 -50 4 -32 2 17 2 47 0 65 -2 17 -4 3 -4 -33z"/>
<path d="M9431 4314 c0 -11 3 -14 6 -6 3 7 2 16 -1 19 -3 4 -6 -2 -5 -13z"/>
<path d="M9485 4320 c-3 -5 -1 -10 4 -10 6 0 11 5 11 10 0 6 -2 10 -4 10 -3 0
-8 -4 -11 -10z"/>
<path d="M11646 4323 c-14 -14 -5 -29 19 -31 14 -1 25 3 25 8 0 12 -36 31 -44
23z"/>
<path d="M9430 4270 c0 -5 5 -10 10 -10 6 0 10 5 10 10 0 6 -4 10 -10 10 -5 0
-10 -4 -10 -10z"/>
<path d="M10268 4259 c-6 -19 3 -59 13 -59 5 0 10 10 10 23 1 18 3 16 9 -8 5
-21 8 -24 9 -9 0 11 6 25 13 32 14 14 11 18 -23 27 -18 4 -28 2 -31 -6z"/>
<path d="M11884 4202 c10 -12 23 -19 28 -16 11 7 11 7 -22 24 -25 13 -25 13
-6 -8z"/>
<path d="M10102 4185 c0 -16 2 -22 5 -12 2 9 2 23 0 30 -3 6 -5 -1 -5 -18z"/>
<path d="M9362 4165 c0 -16 2 -22 5 -12 2 9 2 23 0 30 -3 6 -5 -1 -5 -18z"/>
<path d="M11940 4122 c0 -4 10 -18 21 -32 15 -18 19 -20 15 -7 -3 10 -6 22 -6
27 0 4 -7 10 -15 14 -8 3 -15 2 -15 -2z"/>
<path d="M12782 3552 c-1 -427 -5 -542 -14 -536 -7 5 -21 9 -31 9 -10 1 -23 8
-27 16 -5 7 -11 11 -14 9 -2 -3 14 -30 37 -62 23 -31 66 -90 96 -132 29 -42
56 -74 59 -71 3 3 0 11 -6 17 -15 15 -16 42 -2 33 6 -3 10 1 10 9 0 9 -7 16
-15 16 -8 0 -15 5 -15 10 0 6 -6 10 -14 10 -8 0 -24 13 -35 29 -20 28 -21 41
-24 607 l-2 579 -3 -543z"/>
<path d="M12011 4019 c19 -36 111 -169 121 -175 5 -3 0 11 -11 32 -12 21 -21
45 -21 52 0 7 -4 11 -8 8 -10 -6 -29 15 -61 67 -24 39 -39 51 -20 16z"/>
<path d="M12243 3935 c0 -33 2 -45 4 -27 2 18 2 45 0 60 -2 15 -4 0 -4 -33z"/>
<path d="M12150 3810 c13 -23 20 -26 20 -6 0 8 -7 16 -15 20 -13 4 -14 2 -5
-14z"/>
<path d="M7424 3778 c-4 -7 -14 -24 -22 -38 -14 -24 -13 -24 3 -5 20 24 37 55
31 55 -3 0 -8 -6 -12 -12z"/>
<path d="M12195 3745 c11 -16 37 -55 60 -85 22 -30 50 -71 62 -91 30 -47 59
-73 68 -59 3 6 2 9 -3 8 -14 -4 -72 71 -72 94 0 11 -13 31 -30 45 -16 13 -30
32 -30 41 -1 21 -29 72 -30 53 0 -11 -5 -9 -22 5 l-21 19 18 -30z"/>
<path d="M7343 3648 c-15 -20 -25 -38 -20 -38 3 0 12 11 21 25 17 26 16 35 -1
13z"/>
<path d="M7300 3580 c-6 -11 -8 -20 -6 -20 3 0 10 9 16 20 6 11 8 20 6 20 -3
0 -10 -9 -16 -20z"/>
<path d="M7201 3423 c-23 -38 -31 -55 -17 -39 25 30 70 106 63 106 -3 0 -23
-30 -46 -67z"/>
<path d="M12409 3443 c23 -35 41 -50 41 -35 0 4 -14 21 -32 38 l-31 29 22 -32z"/>
<path d="M12477 3348 c5 -7 22 -30 38 -51 21 -28 30 -35 36 -25 6 9 9 3 9 -15
0 -27 55 -117 71 -117 18 0 3 39 -16 44 -24 6 -45 44 -45 81 0 14 -6 25 -13
25 -15 0 -67 47 -67 60 0 6 -5 10 -11 10 -8 0 -8 -4 -2 -12z"/>
<path d="M7094 3262 c-154 -231 -234 -355 -221 -342 21 21 260 381 255 385 -1
2 -17 -18 -34 -43z"/>
<path d="M12649 3148 c-6 -26 21 -88 37 -88 4 0 1 7 -7 16 -7 9 -16 34 -19 57
-5 38 -6 39 -11 15z"/>
<path d="M7436 3085 c-3 -8 -1 -15 4 -15 13 0 22 18 11 24 -5 3 -11 -1 -15 -9z"/>
<path d="M6820 2850 c-6 -11 -8 -20 -6 -20 3 0 10 9 16 20 6 11 8 20 6 20 -3
0 -10 -9 -16 -20z"/>
<path d="M6769 2773 c-13 -16 -12 -17 4 -4 16 13 21 21 13 21 -2 0 -10 -8 -17
-17z"/>
<path d="M12890 2769 c0 -12 82 -114 90 -112 5 2 7 -3 4 -11 -3 -8 -1 -17 4
-20 5 -3 9 18 10 47 1 36 -2 46 -7 32 -8 -18 -9 -19 -16 -2 -4 9 -14 17 -23
17 -9 0 -26 12 -39 28 -12 15 -22 24 -23 21z"/>
<path d="M6565 2468 c-169 -254 -205 -309 -188 -293 34 35 359 523 352 529 -2
2 -76 -104 -164 -236z"/>
<path d="M6340 2129 c-12 -16 -20 -32 -17 -35 2 -3 14 11 25 31 26 43 21 46
-8 4z"/>
<path d="M6195 1914 c-9 -15 -12 -23 -6 -20 11 7 35 46 28 46 -3 0 -12 -12
-22 -26z"/>
<path d="M6082 1745 c-12 -19 -20 -35 -17 -35 7 0 47 61 42 66 -2 3 -14 -11
-25 -31z"/>
<path d="M6019 1653 c-71 -105 -139 -214 -131 -209 10 6 110 152 151 219 32
53 18 46 -20 -10z"/>
<path d="M13796 1500 c4 -8 42 -61 83 -118 42 -57 83 -113 91 -125 87 -131
188 -267 211 -285 16 -13 29 -31 29 -41 0 -21 113 -186 179 -261 26 -30 55
-71 64 -90 10 -19 90 -134 180 -255 89 -122 178 -244 197 -273 l35 -51 63 -1
c60 0 62 1 50 20 -7 11 -17 20 -23 20 -6 0 -27 9 -48 20 -20 11 -45 20 -55 20
-24 0 -52 30 -96 104 -33 55 -36 66 -36 140 0 62 -5 88 -19 112 -18 29 -25 32
-90 38 l-71 7 -37 57 c-36 53 -38 62 -43 155 -7 120 -20 137 -104 137 -58 0
-62 2 -97 50 -35 47 -42 71 -44 163 -1 43 -7 83 -13 89 -6 6 -40 14 -77 17
-37 4 -70 12 -73 17 -4 6 -20 27 -36 47 -26 33 -29 45 -27 102 3 104 0 110
-67 113 -53 2 -60 6 -95 45 -21 23 -35 35 -31 27z"/>
<path d="M5822 1353 c-28 -43 -55 -83 -60 -88 -5 -6 -11 -15 -13 -20 -2 -6
-106 -163 -230 -350 -434 -653 -584 -880 -587 -887 -2 -5 3 -8 11 -8 8 0 20
13 27 30 7 16 19 35 27 42 8 6 26 32 39 57 24 46 39 68 169 266 211 320 275
418 275 422 0 2 12 20 28 40 15 20 36 51 47 68 11 18 47 72 79 121 96 145 223
340 235 363 24 44 2 18 -47 -56z"/>
<path d="M14010 1151 c0 -12 5 -21 10 -21 6 0 10 6 10 14 0 8 -4 18 -10 21 -5
3 -10 -3 -10 -14z"/>
<path d="M10670 1090 c0 -5 5 -10 11 -10 5 0 7 5 4 10 -3 6 -8 10 -11 10 -2 0
-4 -4 -4 -10z"/>
</g>
</svg>
